<svg xmlns="http://www.w3.org/2000/svg" xmlns:xlink="http://www.w3.org/1999/xlink" width="1080" zoomAndPan="magnify" viewBox="0 0 810 809.999993" height="1080" preserveAspectRatio="xMidYMid meet" version="1.0"><defs><g/><clipPath id="313671c598"><path d="M 184.945312 181.9375 L 639.351562 181.9375 L 639.351562 623.6875 L 184.945312 623.6875 Z M 184.945312 181.9375 " clip-rule="nonzero"/></clipPath></defs><g fill="#000000" fill-opacity="1"><g transform="translate(108.698539, 399.724667)"><g><path d="M -11.308594 -116.898438 C -35.8125 -126.128906 -64.476562 -114.953125 -74.082031 -89.453125 C -83.71875 -63.859375 -69.867188 -35.429688 -42.914062 -25.28125 C -15.960938 -15.128906 13.023438 -27.425781 22.660156 -53.019531 C 29.941406 -72.347656 24.148438 -93.285156 9.332031 -105.394531 L 4.921875 -93.6875 C 15.566406 -83.980469 17.851562 -69.960938 12.792969 -56.527344 C 6.230469 -39.105469 -14.273438 -27.863281 -37.222656 -35.160156 L -7.113281 -115.113281 C -9.222656 -116.113281 -10.128906 -116.453125 -11.308594 -116.898438 Z M -46.402344 -39.132812 C -64.273438 -49.179688 -70.457031 -68.8125 -64.167969 -85.511719 C -57.296875 -103.753906 -37.25 -113.507812 -20.390625 -108.195312 Z M -46.402344 -39.132812 "/></g></g></g><g fill="#000000" fill-opacity="1"><g transform="translate(138.932732, 308.122933)"><g><path d="M 38.855469 -42.339844 C 51.183594 -57.066406 52.367188 -76.308594 44.613281 -91.523438 L 63.429688 -75.773438 L 70.339844 -84.027344 L -34.289062 -171.609375 L -41.445312 -163.058594 L -0.175781 -128.511719 L 6.789062 -122.933594 C -7.714844 -127.359375 -27.351562 -124.449219 -40.425781 -108.832031 C -58.289062 -87.492188 -54.308594 -56.589844 -32.148438 -38.039062 C -9.988281 -19.492188 21.179688 -21.222656 38.855469 -42.339844 Z M 31.808594 -50.390625 C 17.617188 -33.4375 -7.28125 -31.640625 -25.128906 -46.578125 C -42.972656 -61.519531 -45.390625 -86.429688 -31.324219 -103.238281 C -17.316406 -119.96875 7.917969 -121.863281 25.539062 -107.109375 C 43.386719 -92.171875 45.816406 -67.121094 31.808594 -50.390625 Z M 31.808594 -50.390625 "/></g></g></g><g fill="#000000" fill-opacity="1"><g transform="translate(209.242624, 221.886734)"><g><path d="M 64.074219 -98.425781 C 50.679688 -120.921875 21.304688 -130.070312 -2.109375 -116.125 C -25.605469 -102.132812 -32.511719 -71.273438 -17.773438 -46.527344 C -3.039062 -21.78125 27.285156 -13.3125 50.78125 -27.304688 C 68.53125 -37.875 77.0625 -57.851562 73.03125 -76.558594 L 62.285156 -70.160156 C 64.546875 -55.933594 57.589844 -43.546875 45.257812 -36.207031 C 29.261719 -26.679688 6.222656 -30.679688 -7.164062 -50.699219 L 66.238281 -94.410156 C 65.214844 -96.511719 64.71875 -97.34375 64.074219 -98.425781 Z M -11.859375 -59.53125 C -19.5625 -78.53125 -12.148438 -97.730469 3.183594 -106.863281 C 19.929688 -116.835938 41.683594 -111.957031 51.546875 -97.289062 Z M -11.859375 -59.53125 "/></g></g></g><g fill="#000000" fill-opacity="1"><g transform="translate(296.873723, 172.454264)"><g><path d="M 27.582031 -8.945312 L -14.605469 -139.011719 L -25.210938 -135.570312 L 16.972656 -5.503906 Z M 27.582031 -8.945312 "/></g></g></g><g fill="#000000" fill-opacity="1"><g transform="translate(326.904639, 153.537432)"><g><path d="M 46.511719 -1.824219 L 70.824219 -84.785156 L 101.457031 -3.976562 L 112.308594 -4.402344 L 142.859375 -103.910156 L 131.039062 -103.449219 L 108.0625 -26.074219 L 105.554688 -18.210938 L 105.363281 -18.203125 L 102.644531 -25.664062 L 74.835938 -101.246094 L 65.824219 -100.890625 L 43.40625 -21.597656 L 41.699219 -15.707031 L 41.601562 -15.703125 L 39.335938 -21.535156 L 9.71875 -98.691406 L -2.394531 -98.21875 L 35.851562 -1.40625 Z M 46.511719 -1.824219 "/></g></g></g><g fill="#000000" fill-opacity="1"><g transform="translate(457.516567, 148.499363)"><g><path d="M 116.460938 -15.179688 C 124.871094 -39.972656 112.753906 -68.25 86.949219 -77.003906 C 61.050781 -85.789062 33.097656 -71.003906 23.84375 -43.726562 C 14.59375 -16.453125 27.84375 12.105469 53.742188 20.890625 C 73.300781 27.527344 94.035156 21.042969 105.648438 5.832031 L 93.800781 1.8125 C 84.449219 12.773438 70.511719 15.523438 56.921875 10.910156 C 39.289062 4.929688 27.375 -15.1875 33.90625 -38.367188 L 114.8125 -10.925781 C 115.742188 -13.066406 116.054688 -13.984375 116.460938 -15.179688 Z M 37.574219 -47.671875 C 47.023438 -65.871094 66.441406 -72.699219 83.335938 -66.964844 C 101.796875 -60.703125 112.210938 -40.992188 107.460938 -23.964844 Z M 37.574219 -47.671875 "/></g></g></g><g fill="#000000" fill-opacity="1"><g transform="translate(552.008141, 183.053632)"><g><path d="M 83.125 -90.753906 C 87.589844 -88.015625 92.441406 -89.246094 94.875 -93.214844 C 97.210938 -97.015625 96.210938 -102.066406 91.75 -104.804688 C 87.371094 -107.492188 82.414062 -106.097656 80.082031 -102.296875 C 77.648438 -98.328125 78.746094 -93.445312 83.125 -90.753906 Z M 24.710938 15.167969 L 76.101562 -68.554688 L 66.59375 -74.390625 L 15.207031 9.335938 Z M 24.710938 15.167969 "/></g></g></g><g fill="#000000" fill-opacity="1"><g transform="translate(585.390099, 199.628118)"><g><path d="M 33.726562 34.933594 C 50.703125 50.714844 68.632812 53.21875 81.445312 39.441406 C 96.300781 23.460938 84.523438 7.214844 74.445312 -5.730469 C 62.558594 -21.285156 60.558594 -29.101562 68.085938 -37.199219 C 74.625 -44.230469 85.574219 -45.039062 96.582031 -34.804688 C 107.660156 -24.503906 109.738281 -12.640625 102.769531 -4.289062 L 110.800781 3.308594 C 121.628906 -8.339844 119.3125 -26.78125 103.117188 -41.835938 C 86.355469 -57.421875 69.695312 -55.167969 59.859375 -44.585938 C 46.652344 -30.378906 54.539062 -15.367188 65.628906 -1.085938 C 76.210938 12.59375 81.921875 22.40625 72.875 32.136719 C 64.753906 40.871094 52.773438 39.796875 40.203125 28.109375 C 26.566406 15.433594 25.695312 0.847656 34.003906 -8.375 L 26.121094 -15.703125 C 14.894531 -3.628906 14.480469 17.039062 33.726562 34.933594 Z M 33.726562 34.933594 "/></g></g></g><g fill="#000000" fill-opacity="1"><g transform="translate(646.161753, 253.759579)"><g><path d="M 23.386719 42.554688 C 35.628906 62.234375 52.277344 69.351562 68.253906 59.414062 C 86.78125 47.890625 79.675781 29.125 73.34375 13.992188 C 65.949219 -4.136719 66.070312 -12.207031 75.457031 -18.042969 C 83.609375 -23.117188 94.390625 -21.027344 102.328125 -8.261719 C 110.320312 4.582031 109.214844 16.578125 100.300781 22.808594 L 106.054688 32.246094 C 119.558594 23.84375 122.160156 5.441406 110.480469 -13.335938 C 98.390625 -32.765625 81.722656 -34.960938 69.453125 -27.328125 C 52.984375 -17.085938 56.660156 -0.527344 63.617188 16.160156 C 70.242188 32.140625 73.179688 43.101562 61.898438 50.121094 C 51.769531 56.421875 40.492188 52.242188 31.425781 37.667969 C 21.589844 21.859375 24.570312 7.554688 35.011719 0.835938 L 29.324219 -8.304688 C 15.324219 0.402344 9.507812 20.238281 23.386719 42.554688 Z M 23.386719 42.554688 "/></g></g></g><g fill="#000000" fill-opacity="1"><g transform="translate(689.490321, 325.825043)"><g><path d="M 6.746094 23.148438 C 8.503906 27.875 13.242188 30.046875 17.605469 28.421875 C 21.789062 26.867188 24.136719 22.0625 22.378906 17.335938 C 20.621094 12.609375 15.769531 10.6875 11.589844 12.246094 C 7.316406 13.832031 5.023438 18.515625 6.746094 23.148438 Z M 6.746094 23.148438 "/></g></g></g><g fill="#000000" fill-opacity="1"><g transform="translate(704.345407, 364.259588)"><g/></g></g><g fill="#000000" fill-opacity="1"><g transform="translate(30.547111, 441.624245)"><g><path d="M 12.6875 61.808594 C 18.425781 85.6875 42.710938 100.417969 67.957031 94.351562 C 93.113281 88.304688 108.140625 64.128906 102.402344 40.25 C 97.628906 20.378906 80.882812 8.886719 64.691406 6.824219 L 125.070312 -7.683594 L 124.292969 -10.925781 L 4.304688 17.910156 L 5.082031 21.148438 L 30.835938 14.960938 C 15.125 25.773438 8.527344 44.496094 12.6875 61.808594 Z M 15.992188 60.921875 C 10.683594 38.835938 24.527344 16.476562 47.894531 10.863281 C 71.089844 5.289062 93.75 18.875 99.054688 40.964844 C 104.382812 63.136719 90.4375 85.429688 67.15625 91.027344 C 43.703125 96.660156 21.320312 83.097656 15.992188 60.921875 Z M 15.992188 60.921875 "/></g></g></g><g fill="#000000" fill-opacity="1"><g transform="translate(65.938947, 570.744905)"><g><path d="M 88.9375 53.894531 L 90.039062 53.179688 C 109.546875 40.542969 116.347656 13.773438 103.761719 -5.660156 C 91.125 -25.167969 63.4375 -30.640625 41.722656 -16.574219 C 20.007812 -2.507812 13.683594 24.996094 26.316406 44.503906 C 35.234375 58.269531 51.941406 66.152344 69.117188 62.339844 L 67.117188 59.25 C 51.433594 62.300781 36.960938 54.640625 29.1875 42.644531 C 18.554688 26.226562 22.160156 0.171875 44.390625 -14.230469 L 44.6875 -14.417969 Z M 100.890625 -3.800781 C 112.191406 13.648438 106.375 37.582031 89.699219 49.429688 L 47.308594 -16.015625 C 66.59375 -26.414062 89.96875 -20.65625 100.890625 -3.800781 Z M 100.890625 -3.800781 "/></g></g></g><g fill="#000000" fill-opacity="1"><g transform="translate(129.709587, 661.295939)"><g/></g></g><g fill="#000000" fill-opacity="1"><g transform="translate(169.425173, 703.779413)"><g><path d="M 45.308594 28.203125 C 61.546875 37.441406 81.175781 35.390625 95.351562 23.78125 L 82.253906 46.800781 L 85.152344 48.449219 L 146.179688 -58.808594 L 143.28125 -60.457031 L 112.574219 -6.484375 C 115.003906 -22.457031 108.851562 -41.800781 90.9375 -51.992188 C 69.59375 -64.140625 42.191406 -56.417969 29.398438 -33.929688 C 16.558594 -11.367188 23.964844 16.054688 45.308594 28.203125 Z M 47.074219 25.273438 C 27.253906 13.996094 20.367188 -11.320312 32.292969 -32.28125 C 44.136719 -53.09375 69.503906 -60.253906 89.324219 -48.976562 C 109.066406 -37.742188 115.871094 -12.277344 104.027344 8.535156 C 92.101562 29.496094 66.820312 36.507812 47.074219 25.273438 Z M 47.074219 25.273438 "/></g></g></g><g fill="#000000" fill-opacity="1"><g transform="translate(283.053203, 761.532684)"><g><path d="M 49.644531 -102.753906 C 52.007812 -102.089844 54.667969 -103.441406 55.378906 -105.972656 C 56.042969 -108.335938 54.5 -110.957031 52.136719 -111.621094 C 49.855469 -112.261719 47.261719 -110.804688 46.597656 -108.441406 C 45.882812 -105.90625 47.367188 -103.394531 49.644531 -102.753906 Z M 20.941406 5.882812 L 44.761719 -78.890625 L 41.554688 -79.792969 L 17.730469 4.984375 Z M 20.941406 5.882812 "/></g></g></g><g fill="#000000" fill-opacity="1"><g transform="translate(328.612805, 774.487474)"><g><path d="M 27.167969 3.289062 L 37.355469 -80.820312 L 66.261719 -77.320312 L 66.664062 -80.628906 L 37.753906 -84.128906 L 38.734375 -92.226562 C 40.457031 -106.417969 49.441406 -114.960938 61.109375 -113.546875 L 71.644531 -112.269531 L 72.046875 -115.582031 L 61.597656 -116.847656 C 47.839844 -118.511719 37.410156 -108.996094 35.46875 -92.976562 L 34.445312 -84.53125 L 13.113281 -87.113281 L 12.714844 -83.804688 L 34.046875 -81.222656 L 23.859375 2.890625 Z M 27.167969 3.289062 "/></g></g></g><g fill="#000000" fill-opacity="1"><g transform="translate(395.223257, 781.776809)"><g><path d="M 27.3125 -1.675781 L 22.121094 -86.242188 L 51.183594 -88.027344 L 50.980469 -91.355469 L 21.914062 -89.570312 L 21.414062 -97.710938 C 20.539062 -111.980469 27.832031 -122.007812 39.5625 -122.726562 L 50.15625 -123.378906 L 49.949219 -126.707031 L 39.445312 -126.058594 C 25.613281 -125.210938 17.078125 -113.964844 18.066406 -97.859375 L 18.589844 -89.367188 L -2.859375 -88.050781 L -2.65625 -84.722656 L 18.792969 -86.039062 L 23.988281 -1.472656 Z M 27.3125 -1.675781 "/></g></g></g><g fill="#000000" fill-opacity="1"><g transform="translate(465.650128, 778.563493)"><g><path d="M 75.414062 -71.601562 L 75.015625 -72.855469 C 67.964844 -95.003906 43.933594 -108.613281 21.867188 -101.585938 C -0.277344 -94.535156 -12.851562 -69.269531 -5 -44.613281 C 2.847656 -19.960938 27.714844 -6.617188 49.863281 -13.667969 C 65.492188 -18.644531 77.496094 -32.683594 78.34375 -50.257812 L 74.835938 -49.140625 C 73.648438 -33.207031 62.449219 -21.265625 48.824219 -16.925781 C 30.1875 -10.992188 6 -21.332031 -2.035156 -46.570312 L -2.140625 -46.90625 Z M 22.90625 -98.328125 C 42.714844 -104.636719 64.273438 -92.722656 71.308594 -73.515625 L -2.988281 -49.859375 C -7.945312 -71.199219 3.769531 -92.234375 22.90625 -98.328125 Z M 22.90625 -98.328125 "/></g></g></g><g fill="#000000" fill-opacity="1"><g transform="translate(571.459979, 740.878475)"><g><path d="M 18.359375 -11.664062 L -4.402344 -47.496094 C -18.417969 -69.558594 -14.171875 -91.167969 0.785156 -100.667969 L 6.558594 -104.335938 L 4.675781 -107.296875 L -1.097656 -103.628906 C -13.980469 -95.445312 -19.546875 -80.164062 -14.28125 -63.042969 L -28.859375 -85.992188 L -31.671875 -84.203125 L 15.546875 -9.875 Z M 18.359375 -11.664062 "/></g></g></g><g fill="#000000" fill-opacity="1"><g transform="translate(637.580114, 699.634924)"><g><path d="M 30.328125 -99.46875 L 29.363281 -100.363281 C 12.3125 -116.160156 -15.304688 -116.15625 -31.042969 -99.167969 C -46.835938 -82.117188 -45.324219 -53.9375 -26.339844 -36.355469 C -7.359375 -18.773438 20.855469 -19.417969 36.648438 -36.46875 C 47.796875 -48.5 51.320312 -66.636719 43.398438 -82.34375 L 40.894531 -79.640625 C 47.714844 -65.195312 43.855469 -49.28125 34.140625 -38.792969 C 20.847656 -24.445312 -5.292969 -21.519531 -24.722656 -39.519531 L -24.980469 -39.757812 Z M -28.53125 -96.84375 C -14.40625 -112.09375 10.222656 -112.355469 25.8125 -99.109375 L -27.175781 -41.910156 C -42.003906 -58.035156 -42.179688 -82.109375 -28.53125 -96.84375 Z M -28.53125 -96.84375 "/></g></g></g><g fill="#000000" fill-opacity="1"><g transform="translate(715.426302, 613.090829)"><g><path d="M 8.8125 -19.886719 L -36.015625 -39.746094 C -56.0625 -48.628906 -63.285156 -71.300781 -55.433594 -89.023438 C -46.90625 -108.269531 -30.8125 -114.28125 -6.835938 -103.660156 L 37.269531 -84.121094 L 38.617188 -87.167969 L -5.484375 -106.707031 C -32.1875 -118.539062 -49.253906 -111.421875 -58.488281 -90.570312 C -65.667969 -74.371094 -61.691406 -56.496094 -50.128906 -46 L -71.699219 -55.558594 L -73.050781 -52.507812 L 7.460938 -16.839844 Z M 8.8125 -19.886719 "/></g></g></g><g fill="#000000" fill-opacity="1"><g transform="translate(761.421941, 497.023994)"><g><path d="M 8.511719 -60.449219 L 5.121094 -60.925781 L 3.335938 -48.246094 C 1.917969 -38.171875 -2.5625 -27.109375 -26.707031 -30.507812 L -80.03125 -38.015625 L -75.214844 -72.234375 L -78.6875 -72.726562 L -83.507812 -38.503906 L -110.257812 -42.269531 L -110.722656 -38.972656 L -83.972656 -35.203125 L -87.078125 -13.144531 L -83.601562 -12.65625 L -80.496094 -34.714844 L -27.257812 -27.21875 C -3.371094 -23.859375 4.78125 -33.957031 6.710938 -47.679688 Z M 8.511719 -60.449219 "/></g></g></g><g fill="#000000" fill-opacity="1"><g transform="translate(770.19617, 423.171803)"><g/></g></g><g fill="#000000" fill-opacity="1"><g transform="translate(767.948173, 371.016315)"><g/></g></g><g fill="#000000" fill-opacity="1"><g transform="translate(758.351892, 319.702027)"><g/></g></g><g fill="#000000" fill-opacity="1"><g transform="translate(741.599976, 270.258926)"><g/></g></g><g clip-path="url(#313671c598)"><path fill="#000000" d="M 518.613281 460.753906 C 512.367188 455.636719 505.738281 450.691406 498.414062 446.125 C 488.9375 440.210938 480.640625 437.132812 473.109375 437.859375 C 473.421875 436.890625 473.628906 435.921875 473.800781 434.953125 C 499.800781 430.769531 539.023438 441.421875 562.902344 451.039062 C 571.929688 454.667969 579.566406 458.300781 581.09375 459.542969 C 582.898438 461.03125 561.65625 441.457031 511.878906 432.605469 C 498.863281 430.285156 485.398438 429.59375 474.21875 431.21875 C 474.289062 428.488281 473.90625 425.789062 473.039062 423.195312 C 477.863281 420.050781 483.382812 417.972656 489.320312 416.796875 C 517.402344 411.125 556.101562 424.820312 580.816406 436.925781 C 590.222656 441.5625 599.386719 446.851562 607.886719 452.800781 C 617.121094 459.234375 627.289062 467.636719 633.609375 477.011719 C 635.625 479.984375 637.808594 483.582031 638.921875 487.039062 C 642.082031 497.035156 626.980469 490.1875 622.851562 488.355469 C 592.824219 475.140625 529.617188 462.554688 530 462.691406 Z M 495.460938 518.203125 C 501.015625 546.59375 504.589844 573.882812 498.828125 604.488281 C 498.726562 605.148438 498.585938 605.804688 498.445312 606.460938 C 498.171875 607.84375 497.824219 609.226562 497.40625 610.613281 C 493.101562 625.378906 490.011719 629.839844 483.175781 612.339844 C 479.980469 604.109375 477.273438 596.429688 472.484375 588.335938 C 465.402344 576.371094 457.835938 564.714844 450.753906 552.75 C 443.398438 540.335938 436.628906 527.710938 431.179688 514.363281 C 428.574219 508 425.972656 500.5625 425.207031 493.160156 C 423.925781 485.378906 425.519531 477.460938 427.152344 472.097656 C 429.339844 470.230469 430.761719 468.570312 431.804688 466.808594 C 433.503906 464.007812 434.335938 461.273438 435.273438 458.367188 C 435.65625 457.195312 435.96875 455.394531 436.488281 454.460938 C 436.976562 453.597656 437.84375 453.25 439.960938 454.113281 C 439.992188 454.839844 440.03125 455.703125 440.097656 456.640625 C 441.070312 470.058594 445.269531 485.722656 451.171875 500.839844 C 457.664062 517.476562 466.199219 533.523438 474.636719 545.316406 C 474.707031 545.382812 461.0625 516.574219 454.675781 500.214844 C 448.949219 485.484375 445.410156 469.332031 444.507812 456.328125 C 444.472656 456.019531 444.472656 455.742188 444.4375 455.429688 C 451.347656 456.675781 459.433594 454.808594 464.984375 450.414062 C 472.691406 455.566406 498.757812 473.273438 511.53125 486.003906 C 511.707031 486.175781 504.070312 475.523438 487.410156 462.242188 C 482.445312 458.265625 473.839844 452.28125 467.414062 448.167969 C 467.726562 447.785156 468.042969 447.40625 468.351562 447.023438 C 470.054688 444.8125 471.40625 442.390625 472.414062 439.898438 C 484.875 441.527344 496.644531 449.757812 503.6875 455.671875 C 517.640625 465.597656 529.71875 477.21875 542.875 488.386719 C 546.902344 491.8125 551.035156 495.132812 555.269531 498.277344 C 559.746094 501.601562 561.828125 504.089844 561.691406 505.992188 C 561.585938 507.617188 560.300781 508.898438 551.554688 508.792969 C 528.230469 508.550781 499.246094 497.3125 481.648438 484.894531 C 469.429688 478.152344 455.476562 461.792969 455.371094 461.722656 C 458.007812 470.335938 466.515625 478.773438 474.082031 485.3125 C 478.417969 489.078125 484.113281 492.675781 490.429688 495.894531 C 492.199219 503.433594 493.96875 510.625 495.460938 518.203125 Z M 388.308594 522.140625 C 393.066406 512.042969 402.367188 487.386719 401.953125 476.664062 C 404.417969 477.496094 407.054688 477.945312 409.660156 478.011719 C 405.980469 497.449219 405.144531 519.929688 405.460938 539.609375 C 405.597656 546.421875 405.945312 552.128906 406.570312 555.792969 C 406.707031 556.660156 406.847656 557.28125 406.847656 557.28125 C 406.601562 551.023438 407.507812 536.183594 408.789062 520.933594 C 410.316406 502.636719 412.332031 483.859375 413.40625 478.566406 L 413.546875 477.839844 C 416.808594 477.460938 420.003906 476.492188 422.847656 474.96875 C 417.746094 485.96875 419.6875 499.59375 426.527344 516.261719 C 426.804688 516.957031 427.117188 517.679688 427.394531 518.375 C 425.070312 529.992188 422.535156 541.09375 420.800781 552.992188 C 418.230469 570.25 417.675781 585.882812 416.703125 602.136719 C 416.425781 606.632812 416.53125 611.683594 416.046875 616.25 C 415.664062 619.566406 414.449219 620.746094 411.53125 618.152344 C 408.964844 615.902344 406.742188 612.929688 404.902344 610.09375 C 390.878906 589.167969 383.832031 543.308594 388.066406 525.566406 Z M 317.917969 384.359375 C 324.375 387.46875 331.179688 390.167969 337.703125 391.550781 C 335.96875 394.421875 334.925781 397.640625 334.648438 400.890625 C 317.1875 398.953125 288.449219 402.6875 272.550781 408.5 C 272.03125 408.703125 271.683594 408.84375 271.753906 408.84375 C 281.265625 407.183594 292.613281 405.351562 303.859375 404.3125 C 314.65625 403.34375 325.417969 403.101562 334.578125 404.417969 C 335.132812 412.820312 340.410156 420.984375 350.164062 424.234375 C 354.015625 425.511719 353.566406 426.136719 351.726562 429.558594 C 349.261719 434.226562 348.742188 439.414062 349.816406 444.191406 C 343.742188 447.023438 336.628906 449.894531 328.957031 452.59375 C 321.25 455.324219 312.988281 457.882812 304.695312 460.097656 C 296.363281 462.3125 287.996094 464.386719 280.085938 466.253906 C 269.84375 468.675781 260.4375 470.714844 252.835938 472.308594 C 250.925781 472.6875 254.121094 472.515625 259.117188 472.03125 C 280.953125 469.917969 309.449219 464.144531 330.414062 456.742188 C 337.980469 454.046875 345.097656 451.210938 351.242188 448.339844 C 352.664062 451.453125 354.851562 454.21875 357.628906 456.363281 C 364.394531 461.414062 375.054688 462.828125 382.375 458.609375 C 385.8125 456.605469 385.601562 457.15625 386.402344 459.855469 C 386.957031 461.828125 387.6875 463.625 388.554688 465.25 L 388.554688 465.355469 C 387.894531 472.339844 386.125 479.8125 383.867188 487.214844 C 381.613281 494.71875 378.871094 502.085938 376.335938 508.863281 C 375.953125 509.902344 377.6875 507.273438 379.703125 503.570312 C 384.320312 495.132812 389.457031 480.296875 391.433594 469.539062 C 394.105469 472.722656 397.441406 474.96875 401.050781 476.355469 C 400.84375 478.53125 400.355469 480.988281 399.660156 483.582031 C 395.738281 498.417969 384.667969 522.109375 376.371094 536.21875 C 374.496094 539.367188 371.617188 544.140625 369.082031 546.800781 C 362.730469 553.40625 361.898438 549.535156 362.519531 541.996094 C 362.972656 536.632812 363.910156 531.136719 364.949219 525.84375 C 366.929688 515.675781 374.425781 479.914062 377.515625 473.585938 C 369.1875 486.382812 362.902344 509.554688 359.710938 526.605469 C 345.859375 539.191406 326.875 551.226562 309.867188 557.039062 C 307.851562 557.730469 299.246094 559.738281 298.0625 558.285156 C 297.40625 557.523438 298.6875 555.726562 300.632812 552.75 C 304.347656 547.113281 307.679688 541.269531 310.839844 535.355469 C 322.1875 514.152344 340.550781 466.738281 367.171875 463.351562 C 368.285156 463.210938 369.359375 463.140625 370.398438 463.070312 C 363.945312 460.894531 353.425781 464.214844 342.632812 468.710938 C 309.761719 482.40625 295.496094 488.5625 258.078125 493.300781 C 233.15625 496.480469 207.191406 497.105469 190.738281 492.261719 C 180.015625 489.113281 186.226562 484.617188 192.925781 480.226562 C 204.691406 472.480469 217.640625 465.390625 229.546875 458.160156 C 238.882812 452.523438 248.949219 446.957031 258.113281 441.078125 C 259.570312 442.042969 260.160156 442.183594 262.589844 443.046875 C 277.132812 448.199219 297.195312 448.652344 312.921875 446.4375 C 317.050781 445.847656 325.902344 443.738281 333.746094 440.867188 C 340.480469 438.449219 344.921875 435.578125 347.285156 432.707031 C 334.753906 443.84375 282.546875 445.296875 264.289062 438.34375 C 255.648438 435.265625 258.773438 433.742188 265.957031 431.253906 C 287.304688 423.851562 313.648438 418.179688 336.105469 417.730469 C 334.164062 417.28125 332.046875 416.9375 329.71875 416.695312 C 309.867188 414.582031 285.5 419.53125 267.207031 425.546875 C 248.046875 424.234375 231.109375 424.511719 211.878906 421.917969 C 210.800781 421.8125 207.957031 421.292969 206.914062 421.15625 C 195.007812 419.601562 191.085938 416.3125 202.644531 409.191406 C 226.839844 394.351562 287.441406 385.117188 317.917969 384.359375 Z M 345.894531 325.042969 C 350.199219 333.96875 355.753906 341.855469 362.519531 347.421875 C 352.144531 336.699219 343.917969 309.378906 340.863281 288.902344 C 339.371094 278.667969 339.023438 266.527344 340.964844 256.359375 C 342.492188 248.476562 344.75 248.75 348.777344 255.425781 C 353.359375 263 357.695312 272.476562 362.035156 280.328125 C 368.90625 292.671875 377.34375 303.949219 383.589844 316.675781 C 388.96875 327.605469 392.335938 338.773438 388.03125 345.484375 C 384.597656 344.167969 380.847656 343.652344 377.132812 343.859375 C 375.609375 332.757812 357.871094 304.398438 359.257812 307.683594 C 359.328125 307.785156 371.269531 335.523438 373.765625 344.273438 C 369.53125 345.035156 365.472656 346.796875 362.175781 349.53125 C 357.660156 353.230469 354.539062 358.351562 353.84375 363.988281 C 334.40625 356.65625 292.441406 323.835938 292.335938 323.730469 C 290.324219 322.175781 301.953125 334.691406 320.175781 348.285156 C 330.484375 355.960938 343.605469 364.816406 352.421875 367.480469 C 352.734375 367.546875 353.21875 367.6875 353.738281 367.789062 C 353.945312 370.628906 354.363281 373.636719 355.925781 376.472656 C 357.765625 379.828125 359.8125 380.449219 354.882812 380.933594 C 352.523438 381.140625 350.164062 381.761719 347.976562 382.730469 C 344.886719 384.117188 342.320312 385.949219 340.308594 388.128906 C 320.070312 384.359375 293.308594 367.136719 272.066406 343.410156 C 252.765625 321.828125 238.015625 294.4375 236.835938 275.863281 C 236.417969 268.738281 238.363281 267.253906 243.605469 270.78125 C 245.753906 272.199219 247.769531 273.652344 248.601562 274.238281 C 256.308594 279.566406 264.289062 284.40625 272.414062 289.042969 C 293.550781 301.042969 315.59375 310.691406 337.597656 320.964844 Z M 538.363281 375.019531 C 526.734375 375.816406 515.351562 377.890625 506.984375 381.417969 C 496.015625 386.015625 482.933594 392.726562 479.566406 402.375 L 479.808594 402.167969 C 507.402344 375.78125 553.429688 373.945312 587.617188 385.535156 C 588.035156 385.671875 588.484375 385.84375 588.902344 385.984375 C 589.980469 386.363281 591.054688 386.8125 592.132812 387.332031 C 601.574219 391.757812 596.539062 394.042969 588.519531 396.703125 C 576.855469 400.542969 566.445312 403.070312 557.488281 407.390625 C 551.453125 410.296875 547.839844 413.652344 540.792969 416.519531 C 538.085938 415.726562 541.140625 416.589844 538.46875 415.933594 C 518.996094 411.089844 500.460938 409.878906 486.714844 414.273438 C 481.09375 416.074219 476.265625 418.527344 472.832031 422.675781 C 471.824219 419.945312 470.226562 417.316406 468.007812 414.964844 C 464.570312 411.367188 465.542969 412.023438 469.363281 409.914062 C 472.273438 408.324219 474.878906 405.628906 476.753906 402.652344 C 482.378906 393.800781 480.191406 382.800781 473.28125 375.882812 C 481.335938 370.972656 516.078125 351.089844 552.039062 348.667969 C 552.492188 348.632812 546.417969 347.386719 535.933594 348.597656 C 516.566406 350.84375 488.136719 361.117188 472.484375 373.636719 C 472.171875 373.84375 471.859375 374.085938 471.582031 374.328125 C 468.007812 371.386719 463.425781 369.453125 458.183594 369.140625 C 449.226562 368.554688 449.714844 369.140625 449.886719 361.046875 C 449.957031 357.933594 449.609375 355.027344 448.84375 352.367188 C 448.394531 350.84375 447.839844 349.425781 447.179688 348.113281 C 462.382812 330.058594 478.59375 309.378906 485.570312 286.726562 C 486.679688 283.128906 487.167969 280.914062 487.097656 281.050781 C 477.066406 306.265625 452.210938 336.699219 445.238281 344.964844 C 440.515625 338.53125 432.808594 335.28125 425.105469 335.28125 C 422.433594 335.28125 419.792969 335.695312 417.261719 336.421875 C 416.496094 314.703125 415.59375 289.144531 409.832031 266.492188 C 409.660156 265.765625 409.660156 268.359375 409.796875 271.714844 C 410.527344 293.847656 412.191406 315.636719 413.023438 338.046875 C 408.0625 340.4375 403.828125 344.238281 401.292969 349.148438 C 399.9375 351.710938 399.628906 352.816406 396.921875 350.808594 C 394.558594 349.046875 390.742188 346.523438 388.03125 345.484375 C 388.554688 344.828125 389.039062 344.066406 389.492188 343.273438 C 393.828125 335.734375 392.476562 326.359375 387.304688 314.773438 C 384.769531 309.066406 381.960938 303.773438 378.972656 298.691406 L 379.320312 287.96875 C 381.023438 267.046875 384.769531 232.738281 391.921875 207.734375 C 402.679688 170.347656 408.652344 176.535156 420.453125 207.492188 C 431.144531 235.644531 439.09375 265.144531 444.160156 294.78125 L 445.582031 305.433594 L 445.617188 305.433594 C 440.550781 316.882812 437.21875 328.019531 437.425781 337.011719 C 440.34375 315.84375 466.792969 274.273438 483.070312 254.144531 C 494.109375 240.519531 511.222656 222.8125 526.039062 214.476562 C 532.5 210.847656 542.078125 208.976562 534.648438 219.941406 C 524.898438 234.363281 515.804688 256.015625 511.324219 272.75 C 508.339844 283.992188 505.320312 295.40625 500.84375 306.195312 C 498.242188 312.421875 495.148438 318.335938 491.402344 323.90625 C 474.84375 351.984375 458.738281 356.722656 457.976562 356.964844 C 467.277344 355.480469 478.800781 348.113281 490.742188 333.207031 L 499.730469 330.960938 C 530.9375 324.25 568.632812 317.472656 600.007812 325.496094 C 604.3125 326.601562 619.207031 331.617188 608.722656 336.597656 C 604.070312 338.808594 598.621094 340.679688 594.351562 342.648438 C 578.28125 349.980469 557.734375 361.289062 543.257812 371.699219 C 542.285156 372.390625 539.300781 374.949219 538.363281 375.019531 " fill-opacity="1" fill-rule="evenodd"/></g><path fill="#000000" d="M 435.101562 418.941406 C 442.007812 411.160156 453.5 410.019531 460.824219 416.449219 C 468.148438 422.882812 468.460938 434.398438 461.585938 442.214844 C 454.679688 450 443.15625 451.105469 435.832031 444.707031 C 428.542969 438.273438 428.195312 426.757812 435.101562 418.941406 Z M 411.117188 435.023438 C 421.527344 435.472656 429.617188 443.703125 429.203125 453.421875 C 428.785156 463.105469 419.96875 470.609375 409.554688 470.128906 C 399.144531 469.675781 391.019531 461.445312 391.472656 451.726562 C 391.886719 442.042969 400.671875 434.539062 411.117188 435.023438 Z M 381.160156 426.792969 C 388.207031 432.222656 389.769531 441.941406 384.703125 448.476562 C 379.601562 455.011719 369.777344 455.914062 362.765625 450.515625 C 355.71875 445.085938 354.15625 435.367188 359.222656 428.832031 C 364.328125 422.296875 374.148438 421.394531 381.160156 426.792969 Z M 360.128906 386.949219 C 369.707031 387.261719 377.207031 394.730469 376.925781 403.621094 C 376.648438 412.542969 368.667969 419.496094 359.085938 419.183594 C 349.539062 418.871094 342.007812 411.402344 342.285156 402.511719 C 342.597656 393.625 350.582031 386.636719 360.128906 386.949219 Z M 379.636719 350.496094 C 390.046875 350.496094 398.515625 358.382812 398.515625 368.101562 C 398.515625 377.785156 390.046875 385.667969 379.636719 385.667969 C 369.1875 385.667969 360.714844 377.785156 360.714844 368.101562 C 360.714844 358.382812 369.1875 350.496094 379.636719 350.496094 Z M 406.742188 382.246094 C 421.496094 382.246094 433.402344 392.933594 433.402344 406.144531 C 433.402344 419.320312 421.496094 430.042969 406.742188 430.042969 C 392.027344 430.042969 380.085938 419.320312 380.085938 406.144531 C 380.085938 392.933594 392.027344 382.246094 406.742188 382.246094 Z M 463.460938 377.507812 C 471.6875 382.695312 474.429688 393.105469 469.570312 400.75 C 464.746094 408.425781 454.125 410.433594 445.898438 405.246094 C 437.671875 400.09375 434.925781 389.683594 439.789062 382.003906 C 444.648438 374.359375 455.234375 372.355469 463.460938 377.507812 Z M 424.132812 343.097656 C 434.582031 343.097656 443.050781 350.980469 443.050781 360.699219 C 443.050781 370.386719 434.582031 378.269531 424.132812 378.269531 C 413.71875 378.269531 405.253906 370.386719 405.253906 360.699219 C 405.253906 350.980469 413.71875 343.097656 424.132812 343.097656 " fill-opacity="1" fill-rule="evenodd"/></svg>