<svg xmlns="http://www.w3.org/2000/svg" xmlns:xlink="http://www.w3.org/1999/xlink" width="45" zoomAndPan="magnify" viewBox="0 0 33.75 33.749999" height="45" preserveAspectRatio="xMidYMid meet" version="1.0"><defs><g/><clipPath id="5e8641c67f"><path d="M 7.710938 7.582031 L 26.449219 7.582031 L 26.449219 26.332031 L 7.710938 26.332031 Z M 7.710938 7.582031 " clip-rule="nonzero"/></clipPath></defs><g fill="#000000" fill-opacity="1"><g transform="translate(4.529066, 16.655271)"><g><path d="M -0.472656 -4.871094 C -1.492188 -5.253906 -2.6875 -4.789062 -3.085938 -3.726562 C -3.488281 -2.660156 -2.910156 -1.476562 -1.789062 -1.054688 C -0.664062 -0.628906 0.542969 -1.144531 0.945312 -2.210938 C 1.246094 -3.015625 1.007812 -3.886719 0.390625 -4.390625 L 0.203125 -3.902344 C 0.648438 -3.5 0.742188 -2.914062 0.53125 -2.355469 C 0.257812 -1.628906 -0.59375 -1.160156 -1.550781 -1.464844 L -0.296875 -4.796875 C -0.382812 -4.839844 -0.421875 -4.851562 -0.472656 -4.871094 Z M -1.933594 -1.628906 C -2.679688 -2.050781 -2.9375 -2.867188 -2.671875 -3.5625 C -2.386719 -4.324219 -1.550781 -4.730469 -0.851562 -4.507812 Z M -1.933594 -1.628906 "/></g></g></g><g fill="#000000" fill-opacity="1"><g transform="translate(5.788823, 12.838533)"><g><path d="M 1.617188 -1.765625 C 2.132812 -2.378906 2.183594 -3.179688 1.859375 -3.8125 L 2.644531 -3.15625 L 2.929688 -3.5 L -1.429688 -7.148438 L -1.726562 -6.792969 L -0.0078125 -5.355469 L 0.28125 -5.121094 C -0.320312 -5.308594 -1.140625 -5.183594 -1.683594 -4.535156 C -2.429688 -3.644531 -2.261719 -2.359375 -1.339844 -1.585938 C -0.417969 -0.8125 0.882812 -0.882812 1.617188 -1.765625 Z M 1.324219 -2.097656 C 0.734375 -1.394531 -0.304688 -1.320312 -1.046875 -1.941406 C -1.789062 -2.5625 -1.890625 -3.601562 -1.304688 -4.300781 C -0.722656 -5 0.328125 -5.078125 1.0625 -4.464844 C 1.808594 -3.839844 1.910156 -2.796875 1.324219 -2.097656 Z M 1.324219 -2.097656 "/></g></g></g><g fill="#000000" fill-opacity="1"><g transform="translate(8.718402, 9.245358)"><g><path d="M 2.667969 -4.101562 C 2.113281 -5.039062 0.886719 -5.417969 -0.0859375 -4.839844 C -1.066406 -4.253906 -1.355469 -2.96875 -0.742188 -1.9375 C -0.125 -0.90625 1.136719 -0.554688 2.117188 -1.136719 C 2.855469 -1.578125 3.210938 -2.410156 3.042969 -3.191406 L 2.59375 -2.921875 C 2.691406 -2.332031 2.398438 -1.816406 1.886719 -1.507812 C 1.21875 -1.113281 0.257812 -1.277344 -0.296875 -2.113281 L 2.761719 -3.933594 C 2.71875 -4.019531 2.695312 -4.054688 2.667969 -4.101562 Z M -0.496094 -2.480469 C -0.816406 -3.273438 -0.507812 -4.070312 0.132812 -4.453125 C 0.832031 -4.867188 1.738281 -4.664062 2.148438 -4.054688 Z M -0.496094 -2.480469 "/></g></g></g><g fill="#000000" fill-opacity="1"><g transform="translate(12.369698, 7.185672)"><g><path d="M 1.148438 -0.371094 L -0.609375 -5.792969 L -1.050781 -5.648438 L 0.707031 -0.230469 Z M 1.148438 -0.371094 "/></g></g></g><g fill="#000000" fill-opacity="1"><g transform="translate(13.620986, 6.397471)"><g><path d="M 1.9375 -0.0742188 L 2.949219 -3.53125 L 4.226562 -0.164062 L 4.679688 -0.183594 L 5.953125 -4.328125 L 5.460938 -4.308594 L 4.503906 -1.085938 L 4.398438 -0.757812 L 4.390625 -0.757812 L 4.277344 -1.070312 L 3.117188 -4.21875 L 2.742188 -4.203125 L 1.808594 -0.898438 L 1.738281 -0.65625 L 1.734375 -0.652344 L 1.640625 -0.898438 L 0.40625 -4.113281 L -0.101562 -4.09375 L 1.492188 -0.0585938 Z M 1.9375 -0.0742188 "/></g></g></g><g fill="#000000" fill-opacity="1"><g transform="translate(19.063148, 6.187551)"><g><path d="M 4.851562 -0.632812 C 5.203125 -1.664062 4.699219 -2.84375 3.621094 -3.207031 C 2.542969 -3.574219 1.378906 -2.957031 0.992188 -1.820312 C 0.609375 -0.683594 1.160156 0.503906 2.238281 0.871094 C 3.054688 1.148438 3.917969 0.875 4.402344 0.242188 L 3.910156 0.0742188 C 3.519531 0.53125 2.9375 0.648438 2.371094 0.453125 C 1.636719 0.207031 1.140625 -0.632812 1.414062 -1.597656 L 4.785156 -0.457031 C 4.824219 -0.542969 4.835938 -0.582031 4.851562 -0.632812 Z M 1.566406 -1.988281 C 1.960938 -2.746094 2.769531 -3.027344 3.472656 -2.789062 C 4.242188 -2.53125 4.675781 -1.707031 4.476562 -1 Z M 1.566406 -1.988281 "/></g></g></g><g fill="#000000" fill-opacity="1"><g transform="translate(23.000298, 7.627312)"><g><path d="M 3.464844 -3.78125 C 3.648438 -3.667969 3.851562 -3.71875 3.953125 -3.882812 C 4.050781 -4.042969 4.007812 -4.253906 3.824219 -4.367188 C 3.640625 -4.480469 3.433594 -4.421875 3.335938 -4.261719 C 3.234375 -4.097656 3.28125 -3.894531 3.464844 -3.78125 Z M 1.03125 0.632812 L 3.171875 -2.855469 L 2.773438 -3.097656 L 0.632812 0.390625 Z M 1.03125 0.632812 "/></g></g></g><g fill="#000000" fill-opacity="1"><g transform="translate(24.391212, 8.317916)"><g><path d="M 1.40625 1.457031 C 2.113281 2.113281 2.859375 2.21875 3.394531 1.644531 C 4.011719 0.976562 3.523438 0.300781 3.101562 -0.238281 C 2.605469 -0.886719 2.523438 -1.210938 2.835938 -1.550781 C 3.109375 -1.84375 3.566406 -1.875 4.023438 -1.449219 C 4.484375 -1.019531 4.574219 -0.527344 4.28125 -0.179688 L 4.617188 0.136719 C 5.066406 -0.347656 4.972656 -1.117188 4.296875 -1.742188 C 3.597656 -2.390625 2.902344 -2.296875 2.492188 -1.859375 C 1.945312 -1.265625 2.273438 -0.640625 2.734375 -0.046875 C 3.175781 0.523438 3.414062 0.933594 3.035156 1.339844 C 2.699219 1.703125 2.199219 1.660156 1.675781 1.171875 C 1.105469 0.644531 1.070312 0.0351562 1.417969 -0.347656 L 1.089844 -0.65625 C 0.621094 -0.152344 0.601562 0.710938 1.40625 1.457031 Z M 1.40625 1.457031 "/></g></g></g><g fill="#000000" fill-opacity="1"><g transform="translate(26.923366, 10.573393)"><g><path d="M 0.972656 1.773438 C 1.484375 2.59375 2.179688 2.890625 2.84375 2.476562 C 3.617188 1.996094 3.320312 1.214844 3.054688 0.582031 C 2.746094 -0.171875 2.753906 -0.507812 3.144531 -0.75 C 3.484375 -0.964844 3.933594 -0.875 4.265625 -0.34375 C 4.597656 0.191406 4.550781 0.691406 4.179688 0.949219 L 4.417969 1.34375 C 4.980469 0.992188 5.089844 0.226562 4.601562 -0.554688 C 4.101562 -1.367188 3.40625 -1.457031 2.894531 -1.140625 C 2.207031 -0.710938 2.359375 -0.0234375 2.652344 0.671875 C 2.925781 1.339844 3.050781 1.796875 2.578125 2.089844 C 2.15625 2.351562 1.6875 2.175781 1.308594 1.570312 C 0.898438 0.910156 1.023438 0.316406 1.457031 0.0351562 L 1.222656 -0.347656 C 0.636719 0.015625 0.394531 0.84375 0.972656 1.773438 Z M 0.972656 1.773438 "/></g></g></g><g fill="#000000" fill-opacity="1"><g transform="translate(28.728724, 13.576121)"><g><path d="M 0.28125 0.964844 C 0.355469 1.160156 0.550781 1.25 0.734375 1.183594 C 0.90625 1.121094 1.003906 0.917969 0.933594 0.722656 C 0.859375 0.523438 0.65625 0.445312 0.484375 0.511719 C 0.304688 0.578125 0.210938 0.769531 0.28125 0.964844 Z M 0.28125 0.964844 "/></g></g></g><g fill="#000000" fill-opacity="1"><g transform="translate(29.34768, 15.17756)"><g/></g></g><g fill="#000000" fill-opacity="1"><g transform="translate(1.273898, 18.400203)"><g><path d="M 0.527344 2.574219 C 0.769531 3.570312 1.78125 4.183594 2.832031 3.929688 C 3.878906 3.679688 4.503906 2.671875 4.265625 1.675781 C 4.066406 0.847656 3.371094 0.371094 2.695312 0.285156 L 5.210938 -0.320312 L 5.179688 -0.457031 L 0.179688 0.746094 L 0.210938 0.882812 L 1.285156 0.625 C 0.628906 1.074219 0.355469 1.855469 0.527344 2.574219 Z M 0.667969 2.539062 C 0.445312 1.617188 1.023438 0.6875 1.996094 0.453125 C 2.960938 0.21875 3.90625 0.785156 4.128906 1.707031 C 4.347656 2.628906 3.769531 3.558594 2.796875 3.792969 C 1.820312 4.027344 0.886719 3.460938 0.667969 2.539062 Z M 0.667969 2.539062 "/></g></g></g><g fill="#000000" fill-opacity="1"><g transform="translate(2.748556, 23.780229)"><g><path d="M 3.707031 2.246094 L 3.75 2.214844 C 4.566406 1.6875 4.847656 0.574219 4.324219 -0.234375 C 3.796875 -1.046875 2.644531 -1.277344 1.738281 -0.691406 C 0.832031 -0.105469 0.570312 1.042969 1.097656 1.855469 C 1.46875 2.429688 2.164062 2.757812 2.878906 2.597656 L 2.796875 2.46875 C 2.144531 2.597656 1.539062 2.277344 1.214844 1.777344 C 0.773438 1.09375 0.921875 0.0078125 1.851562 -0.59375 L 1.863281 -0.601562 Z M 4.203125 -0.160156 C 4.675781 0.570312 4.433594 1.566406 3.738281 2.058594 L 1.972656 -0.667969 C 2.773438 -1.101562 3.75 -0.859375 4.203125 -0.160156 Z M 4.203125 -0.160156 "/></g></g></g><g fill="#000000" fill-opacity="1"><g transform="translate(5.405668, 27.553188)"><g/></g></g><g fill="#000000" fill-opacity="1"><g transform="translate(7.060483, 29.323333)"><g><path d="M 1.886719 1.175781 C 2.5625 1.558594 3.382812 1.476562 3.972656 0.992188 L 3.425781 1.949219 L 3.546875 2.019531 L 6.089844 -2.449219 L 5.96875 -2.519531 L 4.691406 -0.269531 C 4.792969 -0.9375 4.535156 -1.742188 3.789062 -2.167969 C 2.898438 -2.671875 1.757812 -2.351562 1.226562 -1.414062 C 0.691406 -0.472656 1 0.667969 1.886719 1.175781 Z M 1.960938 1.054688 C 1.136719 0.582031 0.847656 -0.472656 1.34375 -1.34375 C 1.839844 -2.210938 2.894531 -2.511719 3.722656 -2.039062 C 4.542969 -1.574219 4.828125 -0.511719 4.335938 0.355469 C 3.835938 1.230469 2.785156 1.519531 1.960938 1.054688 Z M 1.960938 1.054688 "/></g></g></g><g fill="#000000" fill-opacity="1"><g transform="translate(11.794985, 31.729716)"><g><path d="M 2.070312 -4.28125 C 2.167969 -4.253906 2.277344 -4.308594 2.308594 -4.414062 C 2.335938 -4.515625 2.269531 -4.625 2.171875 -4.652344 C 2.078125 -4.675781 1.96875 -4.617188 1.941406 -4.519531 C 1.910156 -4.414062 1.972656 -4.308594 2.070312 -4.28125 Z M 0.871094 0.246094 L 1.863281 -3.289062 L 1.730469 -3.324219 L 0.738281 0.207031 Z M 0.871094 0.246094 "/></g></g></g><g fill="#000000" fill-opacity="1"><g transform="translate(13.693299, 32.269502)"><g><path d="M 1.132812 0.136719 L 1.554688 -3.367188 L 2.761719 -3.222656 L 2.777344 -3.359375 L 1.574219 -3.503906 L 1.613281 -3.84375 C 1.6875 -4.433594 2.058594 -4.789062 2.546875 -4.730469 L 2.984375 -4.679688 L 3 -4.816406 L 2.566406 -4.867188 C 1.992188 -4.9375 1.558594 -4.542969 1.476562 -3.875 L 1.433594 -3.523438 L 0.546875 -3.628906 L 0.53125 -3.492188 L 1.417969 -3.382812 L 0.992188 0.121094 Z M 1.132812 0.136719 "/></g></g></g><g fill="#000000" fill-opacity="1"><g transform="translate(16.468736, 32.573222)"><g><path d="M 1.136719 -0.0703125 L 0.921875 -3.59375 L 2.132812 -3.667969 L 2.125 -3.804688 L 0.914062 -3.730469 L 0.890625 -4.070312 C 0.855469 -4.664062 1.160156 -5.082031 1.648438 -5.113281 L 2.089844 -5.140625 L 2.082031 -5.28125 L 1.644531 -5.253906 C 1.066406 -5.21875 0.710938 -4.75 0.753906 -4.078125 L 0.773438 -3.722656 L -0.121094 -3.667969 L -0.109375 -3.53125 L 0.78125 -3.585938 L 1 -0.0625 Z M 1.136719 -0.0703125 "/></g></g></g><g fill="#000000" fill-opacity="1"><g transform="translate(19.403188, 32.439336)"><g><path d="M 3.140625 -2.984375 L 3.125 -3.035156 C 2.832031 -3.957031 1.832031 -4.527344 0.910156 -4.234375 C -0.0117188 -3.9375 -0.535156 -2.886719 -0.207031 -1.859375 C 0.117188 -0.832031 1.15625 -0.277344 2.078125 -0.570312 C 2.730469 -0.777344 3.230469 -1.363281 3.265625 -2.09375 L 3.117188 -2.046875 C 3.070312 -1.382812 2.601562 -0.886719 2.035156 -0.707031 C 1.257812 -0.457031 0.25 -0.890625 -0.0859375 -1.941406 L -0.0898438 -1.953125 Z M 0.953125 -4.097656 C 1.78125 -4.359375 2.679688 -3.863281 2.972656 -3.0625 L -0.125 -2.078125 C -0.332031 -2.964844 0.15625 -3.84375 0.953125 -4.097656 Z M 0.953125 -4.097656 "/></g></g></g><g fill="#000000" fill-opacity="1"><g transform="translate(23.811933, 30.869128)"><g><path d="M 0.765625 -0.484375 L -0.183594 -1.980469 C -0.765625 -2.898438 -0.589844 -3.796875 0.03125 -4.195312 L 0.273438 -4.347656 L 0.195312 -4.472656 L -0.046875 -4.316406 C -0.582031 -3.976562 -0.816406 -3.339844 -0.59375 -2.625 L -1.203125 -3.582031 L -1.320312 -3.507812 L 0.648438 -0.410156 Z M 0.765625 -0.484375 "/></g></g></g><g fill="#000000" fill-opacity="1"><g transform="translate(26.566936, 29.150648)"><g><path d="M 1.265625 -4.144531 L 1.222656 -4.183594 C 0.511719 -4.839844 -0.636719 -4.839844 -1.292969 -4.132812 C -1.953125 -3.421875 -1.886719 -2.246094 -1.097656 -1.515625 C -0.304688 -0.78125 0.867188 -0.808594 1.527344 -1.519531 C 1.992188 -2.019531 2.136719 -2.777344 1.808594 -3.429688 L 1.703125 -3.320312 C 1.988281 -2.714844 1.828125 -2.054688 1.421875 -1.617188 C 0.867188 -1.019531 -0.21875 -0.898438 -1.03125 -1.648438 L -1.039062 -1.65625 Z M -1.1875 -4.035156 C -0.601562 -4.671875 0.425781 -4.679688 1.074219 -4.128906 L -1.132812 -1.746094 C -1.75 -2.417969 -1.757812 -3.421875 -1.1875 -4.035156 Z M -1.1875 -4.035156 "/></g></g></g><g fill="#000000" fill-opacity="1"><g transform="translate(29.810529, 25.544642)"><g><path d="M 0.367188 -0.828125 L -1.5 -1.65625 C -2.335938 -2.027344 -2.636719 -2.972656 -2.308594 -3.710938 C -1.953125 -4.511719 -1.285156 -4.761719 -0.285156 -4.320312 L 1.554688 -3.503906 L 1.609375 -3.632812 L -0.230469 -4.445312 C -1.339844 -4.9375 -2.050781 -4.640625 -2.4375 -3.773438 C -2.734375 -3.097656 -2.570312 -2.355469 -2.089844 -1.917969 L -2.988281 -2.316406 L -3.042969 -2.1875 L 0.3125 -0.703125 Z M 0.367188 -0.828125 "/></g></g></g><g fill="#000000" fill-opacity="1"><g transform="translate(31.727014, 20.708524)"><g><path d="M 0.355469 -2.519531 L 0.214844 -2.539062 L 0.140625 -2.011719 C 0.078125 -1.589844 -0.105469 -1.128906 -1.113281 -1.269531 L -3.335938 -1.585938 L -3.132812 -3.011719 L -3.277344 -3.03125 L -3.480469 -1.605469 L -4.59375 -1.761719 L -4.613281 -1.625 L -3.5 -1.46875 L -3.628906 -0.546875 L -3.484375 -0.527344 L -3.355469 -1.445312 L -1.136719 -1.132812 C -0.140625 -0.992188 0.199219 -1.414062 0.28125 -1.988281 Z M 0.355469 -2.519531 "/></g></g></g><g fill="#000000" fill-opacity="1"><g transform="translate(32.092605, 17.631351)"><g/></g></g><g fill="#000000" fill-opacity="1"><g transform="translate(31.599094, 13.32011)"><g/></g></g><g fill="#000000" fill-opacity="1"><g transform="translate(30.901099, 11.259979)"><g/></g></g><g clip-path="url(#5e8641c67f)"><path fill="#000000" d="M 21.46875 19.414062 C 21.210938 19.199219 20.9375 18.988281 20.636719 18.792969 C 20.246094 18.542969 19.902344 18.414062 19.59375 18.441406 C 19.605469 18.402344 19.613281 18.359375 19.621094 18.320312 C 20.695312 18.140625 22.3125 18.59375 23.296875 19.003906 C 23.667969 19.15625 23.984375 19.3125 24.046875 19.363281 C 24.121094 19.425781 23.246094 18.597656 21.191406 18.21875 C 20.65625 18.121094 20.101562 18.09375 19.640625 18.160156 C 19.640625 18.046875 19.625 17.929688 19.589844 17.820312 C 19.789062 17.6875 20.015625 17.597656 20.261719 17.550781 C 21.417969 17.308594 23.015625 17.890625 24.035156 18.402344 C 24.421875 18.601562 24.800781 18.824219 25.152344 19.078125 C 25.53125 19.351562 25.953125 19.707031 26.210938 20.105469 C 26.296875 20.230469 26.386719 20.382812 26.429688 20.53125 C 26.5625 20.953125 25.9375 20.664062 25.769531 20.585938 C 24.53125 20.027344 21.921875 19.492188 21.9375 19.496094 Z M 20.515625 21.851562 C 20.742188 23.058594 20.890625 24.214844 20.652344 25.515625 C 20.648438 25.542969 20.644531 25.570312 20.636719 25.597656 C 20.625 25.660156 20.613281 25.71875 20.59375 25.777344 C 20.417969 26.402344 20.289062 26.59375 20.007812 25.847656 C 19.875 25.5 19.765625 25.175781 19.566406 24.832031 C 19.273438 24.324219 18.964844 23.828125 18.671875 23.320312 C 18.367188 22.792969 18.089844 22.257812 17.863281 21.691406 C 17.757812 21.421875 17.648438 21.105469 17.617188 20.789062 C 17.566406 20.460938 17.628906 20.125 17.699219 19.898438 C 17.789062 19.816406 17.847656 19.746094 17.890625 19.671875 C 17.960938 19.554688 17.996094 19.4375 18.03125 19.3125 C 18.046875 19.265625 18.0625 19.1875 18.082031 19.148438 C 18.101562 19.109375 18.140625 19.097656 18.226562 19.132812 C 18.226562 19.164062 18.230469 19.199219 18.230469 19.242188 C 18.273438 19.808594 18.445312 20.476562 18.6875 21.117188 C 18.957031 21.824219 19.308594 22.503906 19.65625 23.003906 C 19.660156 23.007812 19.097656 21.785156 18.832031 21.089844 C 18.597656 20.464844 18.449219 19.777344 18.414062 19.226562 C 18.414062 19.214844 18.414062 19.203125 18.410156 19.1875 C 18.695312 19.242188 19.027344 19.164062 19.257812 18.976562 C 19.574219 19.195312 20.652344 19.945312 21.175781 20.488281 C 21.183594 20.492188 20.871094 20.042969 20.183594 19.476562 C 19.976562 19.308594 19.625 19.054688 19.359375 18.878906 C 19.371094 18.863281 19.382812 18.847656 19.398438 18.832031 C 19.46875 18.738281 19.523438 18.636719 19.566406 18.53125 C 20.078125 18.597656 20.5625 18.949219 20.855469 19.199219 C 21.429688 19.621094 21.929688 20.113281 22.46875 20.589844 C 22.636719 20.734375 22.808594 20.875 22.980469 21.007812 C 23.164062 21.148438 23.25 21.253906 23.246094 21.335938 C 23.242188 21.402344 23.1875 21.457031 22.828125 21.453125 C 21.867188 21.445312 20.671875 20.964844 19.945312 20.441406 C 19.441406 20.152344 18.867188 19.460938 18.863281 19.457031 C 18.96875 19.820312 19.320312 20.179688 19.632812 20.457031 C 19.8125 20.617188 20.046875 20.769531 20.308594 20.90625 C 20.378906 21.226562 20.453125 21.53125 20.515625 21.851562 Z M 16.097656 22.019531 C 16.292969 21.59375 16.675781 20.546875 16.660156 20.089844 C 16.761719 20.125 16.867188 20.144531 16.976562 20.148438 C 16.824219 20.972656 16.789062 21.925781 16.804688 22.761719 C 16.808594 23.050781 16.824219 23.292969 16.847656 23.449219 C 16.855469 23.484375 16.859375 23.511719 16.859375 23.511719 C 16.851562 23.246094 16.886719 22.617188 16.941406 21.96875 C 17.003906 21.191406 17.085938 20.394531 17.132812 20.171875 L 17.136719 20.140625 C 17.269531 20.125 17.402344 20.082031 17.519531 20.019531 C 17.308594 20.484375 17.390625 21.0625 17.671875 21.769531 C 17.683594 21.800781 17.695312 21.832031 17.707031 21.859375 C 17.613281 22.355469 17.507812 22.824219 17.4375 23.332031 C 17.328125 24.0625 17.308594 24.726562 17.265625 25.417969 C 17.253906 25.605469 17.261719 25.820312 17.238281 26.015625 C 17.222656 26.15625 17.175781 26.207031 17.054688 26.097656 C 16.949219 26 16.855469 25.875 16.78125 25.753906 C 16.203125 24.867188 15.910156 22.917969 16.085938 22.164062 Z M 13.191406 16.171875 C 13.460938 16.304688 13.738281 16.417969 14.007812 16.476562 C 13.9375 16.597656 13.894531 16.734375 13.882812 16.875 C 13.164062 16.792969 11.976562 16.949219 11.320312 17.195312 C 11.300781 17.207031 11.285156 17.210938 11.289062 17.210938 C 11.679688 17.140625 12.148438 17.0625 12.613281 17.019531 C 13.058594 16.976562 13.503906 16.96875 13.878906 17.023438 C 13.902344 17.378906 14.121094 17.726562 14.523438 17.863281 C 14.683594 17.917969 14.664062 17.945312 14.585938 18.089844 C 14.484375 18.289062 14.464844 18.507812 14.507812 18.710938 C 14.257812 18.832031 13.964844 18.953125 13.648438 19.070312 C 13.332031 19.183594 12.988281 19.292969 12.648438 19.386719 C 12.304688 19.480469 11.960938 19.570312 11.632812 19.648438 C 11.210938 19.75 10.824219 19.835938 10.507812 19.90625 C 10.429688 19.921875 10.5625 19.914062 10.769531 19.894531 C 11.667969 19.804688 12.84375 19.558594 13.707031 19.246094 C 14.019531 19.128906 14.3125 19.011719 14.566406 18.886719 C 14.625 19.019531 14.714844 19.136719 14.832031 19.230469 C 15.109375 19.441406 15.550781 19.503906 15.851562 19.324219 C 15.992188 19.238281 15.984375 19.261719 16.015625 19.375 C 16.039062 19.460938 16.070312 19.535156 16.105469 19.605469 L 16.105469 19.609375 C 16.078125 19.90625 16.007812 20.222656 15.914062 20.539062 C 15.820312 20.855469 15.707031 21.167969 15.601562 21.457031 C 15.585938 21.5 15.65625 21.390625 15.742188 21.230469 C 15.929688 20.875 16.144531 20.246094 16.226562 19.789062 C 16.335938 19.921875 16.472656 20.019531 16.621094 20.078125 C 16.613281 20.167969 16.59375 20.273438 16.5625 20.382812 C 16.402344 21.011719 15.945312 22.019531 15.605469 22.617188 C 15.527344 22.75 15.40625 22.953125 15.304688 23.066406 C 15.042969 23.347656 15.007812 23.183594 15.03125 22.863281 C 15.050781 22.636719 15.089844 22.402344 15.132812 22.179688 C 15.214844 21.746094 15.523438 20.226562 15.652344 19.960938 C 15.308594 20.503906 15.046875 21.488281 14.917969 22.210938 C 14.34375 22.746094 13.5625 23.253906 12.859375 23.5 C 12.777344 23.53125 12.421875 23.617188 12.375 23.554688 C 12.347656 23.523438 12.398438 23.445312 12.480469 23.320312 C 12.632812 23.082031 12.769531 22.832031 12.902344 22.582031 C 13.367188 21.679688 14.125 19.667969 15.222656 19.523438 C 15.269531 19.519531 15.316406 19.515625 15.355469 19.511719 C 15.089844 19.421875 14.65625 19.5625 14.210938 19.753906 C 12.855469 20.335938 12.269531 20.59375 10.726562 20.796875 C 9.699219 20.929688 8.625 20.957031 7.949219 20.753906 C 7.507812 20.617188 7.761719 20.429688 8.039062 20.242188 C 8.523438 19.914062 9.058594 19.613281 9.546875 19.304688 C 9.933594 19.066406 10.347656 18.828125 10.726562 18.578125 C 10.785156 18.621094 10.8125 18.625 10.910156 18.664062 C 11.511719 18.882812 12.339844 18.902344 12.988281 18.808594 C 13.15625 18.78125 13.523438 18.691406 13.847656 18.570312 C 14.125 18.46875 14.308594 18.347656 14.402344 18.222656 C 13.886719 18.699219 11.734375 18.757812 10.980469 18.464844 C 10.625 18.332031 10.753906 18.269531 11.050781 18.164062 C 11.929688 17.847656 13.015625 17.609375 13.941406 17.589844 C 13.863281 17.570312 13.777344 17.554688 13.679688 17.546875 C 12.859375 17.457031 11.855469 17.664062 11.101562 17.921875 C 10.3125 17.863281 9.613281 17.875 8.820312 17.765625 C 8.777344 17.761719 8.660156 17.738281 8.617188 17.734375 C 8.125 17.667969 7.960938 17.527344 8.4375 17.226562 C 9.4375 16.597656 11.9375 16.203125 13.191406 16.171875 Z M 14.347656 13.65625 C 14.523438 14.035156 14.753906 14.367188 15.03125 14.605469 C 14.605469 14.148438 14.265625 12.988281 14.140625 12.121094 C 14.078125 11.6875 14.0625 11.171875 14.144531 10.738281 C 14.207031 10.40625 14.300781 10.417969 14.464844 10.699219 C 14.65625 11.019531 14.832031 11.421875 15.011719 11.757812 C 15.296875 12.28125 15.644531 12.757812 15.902344 13.300781 C 16.125 13.761719 16.261719 14.238281 16.085938 14.523438 C 15.941406 14.464844 15.789062 14.445312 15.636719 14.453125 C 15.570312 13.980469 14.839844 12.777344 14.898438 12.917969 C 14.902344 12.921875 15.394531 14.101562 15.496094 14.472656 C 15.320312 14.503906 15.152344 14.578125 15.019531 14.695312 C 14.832031 14.851562 14.703125 15.070312 14.675781 15.308594 C 13.871094 14.996094 12.140625 13.605469 12.136719 13.597656 C 12.054688 13.53125 12.535156 14.0625 13.285156 14.640625 C 13.710938 14.96875 14.253906 15.34375 14.617188 15.457031 C 14.628906 15.457031 14.648438 15.464844 14.671875 15.46875 C 14.679688 15.589844 14.695312 15.71875 14.761719 15.835938 C 14.835938 15.980469 14.921875 16.007812 14.71875 16.027344 C 14.621094 16.035156 14.523438 16.0625 14.433594 16.101562 C 14.304688 16.164062 14.199219 16.238281 14.117188 16.332031 C 13.28125 16.171875 12.179688 15.441406 11.300781 14.433594 C 10.507812 13.519531 9.898438 12.355469 9.847656 11.566406 C 9.832031 11.265625 9.914062 11.203125 10.128906 11.351562 C 10.21875 11.410156 10.300781 11.472656 10.335938 11.5 C 10.652344 11.722656 10.980469 11.929688 11.316406 12.125 C 12.1875 12.636719 13.097656 13.046875 14.003906 13.480469 Z M 22.285156 15.777344 C 21.804688 15.808594 21.335938 15.898438 20.988281 16.046875 C 20.539062 16.242188 20 16.527344 19.859375 16.9375 L 19.871094 16.929688 C 21.007812 15.808594 22.90625 15.730469 24.316406 16.222656 C 24.332031 16.226562 24.351562 16.234375 24.367188 16.242188 C 24.414062 16.257812 24.457031 16.277344 24.5 16.296875 C 24.890625 16.488281 24.683594 16.582031 24.351562 16.695312 C 23.871094 16.859375 23.441406 16.964844 23.074219 17.148438 C 22.824219 17.273438 22.675781 17.414062 22.382812 17.539062 C 22.273438 17.503906 22.398438 17.539062 22.289062 17.511719 C 21.484375 17.308594 20.722656 17.253906 20.152344 17.441406 C 19.921875 17.519531 19.722656 17.621094 19.582031 17.800781 C 19.539062 17.683594 19.472656 17.570312 19.382812 17.472656 C 19.242188 17.320312 19.28125 17.347656 19.4375 17.257812 C 19.558594 17.191406 19.667969 17.074219 19.742188 16.949219 C 19.976562 16.574219 19.886719 16.105469 19.601562 15.8125 C 19.933594 15.605469 21.363281 14.761719 22.847656 14.65625 C 22.867188 14.65625 22.617188 14.601562 22.183594 14.65625 C 21.386719 14.75 20.210938 15.1875 19.566406 15.71875 C 19.554688 15.726562 19.542969 15.738281 19.53125 15.746094 C 19.382812 15.621094 19.195312 15.539062 18.976562 15.527344 C 18.609375 15.5 18.628906 15.527344 18.636719 15.183594 C 18.636719 15.050781 18.625 14.925781 18.59375 14.816406 C 18.574219 14.75 18.550781 14.691406 18.523438 14.632812 C 19.152344 13.867188 19.820312 12.988281 20.105469 12.027344 C 20.152344 11.875 20.171875 11.78125 20.171875 11.789062 C 19.757812 12.859375 18.730469 14.148438 18.445312 14.5 C 18.25 14.226562 17.929688 14.089844 17.613281 14.089844 C 17.503906 14.089844 17.394531 14.105469 17.289062 14.136719 C 17.257812 13.214844 17.222656 12.132812 16.984375 11.167969 C 16.976562 11.140625 16.976562 11.25 16.980469 11.390625 C 17.011719 12.332031 17.082031 13.253906 17.117188 14.207031 C 16.910156 14.308594 16.734375 14.46875 16.632812 14.679688 C 16.574219 14.785156 16.5625 14.832031 16.449219 14.75 C 16.355469 14.671875 16.195312 14.566406 16.085938 14.523438 C 16.105469 14.496094 16.125 14.460938 16.144531 14.429688 C 16.324219 14.109375 16.269531 13.710938 16.054688 13.21875 C 15.949219 12.976562 15.835938 12.753906 15.710938 12.535156 L 15.726562 12.082031 C 15.796875 11.191406 15.949219 9.738281 16.246094 8.675781 C 16.6875 7.089844 16.933594 7.351562 17.421875 8.664062 C 17.863281 9.859375 18.191406 11.113281 18.398438 12.371094 L 18.457031 12.824219 L 18.460938 12.824219 C 18.25 13.308594 18.113281 13.78125 18.121094 14.164062 C 18.242188 13.265625 19.332031 11.5 20.003906 10.644531 C 20.460938 10.066406 21.164062 9.316406 21.777344 8.960938 C 22.042969 8.808594 22.4375 8.726562 22.132812 9.195312 C 21.730469 9.804688 21.355469 10.726562 21.167969 11.433594 C 21.046875 11.914062 20.921875 12.398438 20.738281 12.855469 C 20.628906 13.117188 20.503906 13.371094 20.347656 13.605469 C 19.664062 14.796875 19 15 18.96875 15.011719 C 19.351562 14.945312 19.828125 14.632812 20.320312 14 L 20.691406 13.90625 C 21.976562 13.621094 23.53125 13.332031 24.828125 13.675781 C 25.003906 13.722656 25.617188 13.933594 25.1875 14.144531 C 24.992188 14.238281 24.769531 14.320312 24.59375 14.402344 C 23.929688 14.714844 23.082031 15.191406 22.484375 15.636719 C 22.445312 15.664062 22.324219 15.773438 22.285156 15.777344 " fill-opacity="1" fill-rule="evenodd"/></g><path fill="#000000" d="M 18.027344 17.640625 C 18.3125 17.308594 18.785156 17.261719 19.085938 17.535156 C 19.386719 17.808594 19.402344 18.296875 19.117188 18.628906 C 18.832031 18.957031 18.359375 19.003906 18.054688 18.734375 C 17.753906 18.460938 17.742188 17.972656 18.027344 17.640625 Z M 17.035156 18.324219 C 17.464844 18.34375 17.800781 18.691406 17.78125 19.105469 C 17.765625 19.515625 17.402344 19.832031 16.972656 19.8125 C 16.542969 19.792969 16.207031 19.445312 16.226562 19.03125 C 16.242188 18.621094 16.605469 18.300781 17.035156 18.324219 Z M 15.800781 17.972656 C 16.09375 18.203125 16.15625 18.617188 15.945312 18.894531 C 15.738281 19.171875 15.332031 19.210938 15.042969 18.980469 C 14.753906 18.75 14.6875 18.335938 14.898438 18.058594 C 15.105469 17.78125 15.511719 17.746094 15.800781 17.972656 Z M 14.933594 16.28125 C 15.328125 16.296875 15.636719 16.613281 15.625 16.988281 C 15.613281 17.367188 15.285156 17.664062 14.890625 17.652344 C 14.496094 17.636719 14.1875 17.320312 14.199219 16.941406 C 14.210938 16.566406 14.539062 16.269531 14.933594 16.28125 Z M 15.738281 14.734375 C 16.167969 14.734375 16.515625 15.070312 16.515625 15.480469 C 16.515625 15.894531 16.167969 16.226562 15.738281 16.226562 C 15.308594 16.226562 14.957031 15.894531 14.957031 15.480469 C 14.957031 15.070312 15.308594 14.734375 15.738281 14.734375 Z M 16.855469 16.082031 C 17.464844 16.082031 17.957031 16.535156 17.957031 17.097656 C 17.957031 17.65625 17.464844 18.113281 16.855469 18.113281 C 16.25 18.113281 15.757812 17.65625 15.757812 17.097656 C 15.757812 16.535156 16.25 16.082031 16.855469 16.082031 Z M 19.195312 15.882812 C 19.535156 16.101562 19.648438 16.542969 19.445312 16.867188 C 19.25 17.195312 18.808594 17.277344 18.472656 17.058594 C 18.132812 16.839844 18.019531 16.398438 18.21875 16.074219 C 18.417969 15.75 18.855469 15.664062 19.195312 15.882812 Z M 17.574219 14.421875 C 18.003906 14.421875 18.351562 14.753906 18.351562 15.167969 C 18.351562 15.578125 18.003906 15.914062 17.574219 15.914062 C 17.144531 15.914062 16.792969 15.578125 16.792969 15.167969 C 16.792969 14.753906 17.144531 14.421875 17.574219 14.421875 " fill-opacity="1" fill-rule="evenodd"/></svg>