<svg xmlns="http://www.w3.org/2000/svg" xmlns:xlink="http://www.w3.org/1999/xlink" width="45" zoomAndPan="magnify" viewBox="0 0 33.75 33.749999" height="45" preserveAspectRatio="xMidYMid meet" version="1.0"><defs><g/><clipPath id="37dbadf9ee"><path d="M 8.121094 7.339844 L 23.871094 7.339844 L 23.871094 22.335938 L 8.121094 22.335938 Z M 8.121094 7.339844 " clip-rule="nonzero"/></clipPath></defs><g fill="#ffffff" fill-opacity="1"><g transform="translate(5.50012, 14.771975)"><g><path d="M -0.386719 -3.996094 C -1.222656 -4.308594 -2.203125 -3.929688 -2.53125 -3.058594 C -2.859375 -2.183594 -2.386719 -1.210938 -1.464844 -0.863281 C -0.546875 -0.515625 0.445312 -0.9375 0.773438 -1.8125 C 1.023438 -2.472656 0.824219 -3.1875 0.320312 -3.601562 L 0.167969 -3.203125 C 0.53125 -2.871094 0.609375 -2.390625 0.4375 -1.933594 C 0.210938 -1.335938 -0.488281 -0.953125 -1.273438 -1.203125 L -0.242188 -3.933594 C -0.316406 -3.96875 -0.347656 -3.980469 -0.386719 -3.996094 Z M -1.585938 -1.335938 C -2.195312 -1.679688 -2.40625 -2.351562 -2.191406 -2.921875 C -1.957031 -3.546875 -1.273438 -3.878906 -0.695312 -3.699219 Z M -1.585938 -1.335938 "/></g></g></g><g fill="#ffffff" fill-opacity="1"><g transform="translate(6.537653, 11.635519)"><g><path d="M 1.328125 -1.445312 C 1.75 -1.949219 1.789062 -2.609375 1.523438 -3.128906 L 2.167969 -2.589844 L 2.402344 -2.871094 L -1.171875 -5.863281 L -1.417969 -5.574219 L -0.0078125 -4.390625 L 0.230469 -4.203125 C -0.265625 -4.351562 -0.933594 -4.253906 -1.382812 -3.71875 C -1.992188 -2.988281 -1.855469 -1.933594 -1.097656 -1.300781 C -0.339844 -0.667969 0.722656 -0.726562 1.328125 -1.445312 Z M 1.085938 -1.722656 C 0.601562 -1.144531 -0.25 -1.082031 -0.859375 -1.59375 C -1.46875 -2.101562 -1.550781 -2.953125 -1.070312 -3.527344 C -0.59375 -4.101562 0.269531 -4.164062 0.871094 -3.660156 C 1.484375 -3.148438 1.566406 -2.292969 1.085938 -1.722656 Z M 1.085938 -1.722656 "/></g></g></g><g fill="#ffffff" fill-opacity="1"><g transform="translate(8.946148, 8.682872)"><g><path d="M 2.191406 -3.363281 C 1.730469 -4.132812 0.726562 -4.445312 -0.0703125 -3.96875 C -0.875 -3.492188 -1.109375 -2.4375 -0.605469 -1.589844 C -0.105469 -0.746094 0.933594 -0.453125 1.734375 -0.933594 C 2.34375 -1.292969 2.632812 -1.976562 2.496094 -2.617188 L 2.128906 -2.398438 C 2.207031 -1.910156 1.96875 -1.488281 1.546875 -1.238281 C 1 -0.910156 0.210938 -1.046875 -0.246094 -1.734375 L 2.265625 -3.226562 C 2.230469 -3.296875 2.210938 -3.328125 2.191406 -3.363281 Z M -0.40625 -2.035156 C -0.667969 -2.683594 -0.414062 -3.339844 0.109375 -3.652344 C 0.679688 -3.992188 1.425781 -3.824219 1.761719 -3.324219 Z M -0.40625 -2.035156 "/></g></g></g><g fill="#ffffff" fill-opacity="1"><g transform="translate(11.945624, 6.991617)"><g><path d="M 0.941406 -0.304688 L -0.5 -4.75 L -0.863281 -4.632812 L 0.578125 -0.1875 Z M 0.941406 -0.304688 "/></g></g></g><g fill="#ffffff" fill-opacity="1"><g transform="translate(12.97819, 6.343994)"><g><path d="M 1.589844 -0.0625 L 2.421875 -2.898438 L 3.46875 -0.136719 L 3.839844 -0.152344 L 4.882812 -3.550781 L 4.476562 -3.535156 L 3.691406 -0.890625 L 3.605469 -0.621094 L 3.601562 -0.621094 L 3.507812 -0.878906 L 2.558594 -3.460938 L 2.25 -3.449219 L 1.484375 -0.738281 L 1.425781 -0.535156 L 1.421875 -0.535156 L 1.34375 -0.734375 L 0.332031 -3.371094 L -0.0820312 -3.355469 L 1.226562 -0.046875 Z M 1.589844 -0.0625 "/></g></g></g><g fill="#ffffff" fill-opacity="1"><g transform="translate(17.450096, 6.173188)"><g><path d="M 3.980469 -0.519531 C 4.265625 -1.367188 3.851562 -2.332031 2.972656 -2.632812 C 2.085938 -2.933594 1.132812 -2.425781 0.816406 -1.496094 C 0.5 -0.5625 0.953125 0.414062 1.835938 0.714844 C 2.503906 0.941406 3.214844 0.71875 3.609375 0.199219 L 3.207031 0.0625 C 2.886719 0.4375 2.410156 0.53125 1.945312 0.371094 C 1.34375 0.167969 0.933594 -0.519531 1.160156 -1.3125 L 3.921875 -0.375 C 3.957031 -0.445312 3.964844 -0.476562 3.980469 -0.519531 Z M 1.285156 -1.628906 C 1.605469 -2.25 2.269531 -2.484375 2.847656 -2.289062 C 3.480469 -2.074219 3.835938 -1.402344 3.671875 -0.820312 Z M 1.285156 -1.628906 "/></g></g></g><g fill="#ffffff" fill-opacity="1"><g transform="translate(20.68396, 7.35615)"><g><path d="M 2.839844 -3.101562 C 2.992188 -3.007812 3.160156 -3.050781 3.242188 -3.1875 C 3.320312 -3.316406 3.289062 -3.488281 3.136719 -3.582031 C 2.984375 -3.671875 2.816406 -3.625 2.738281 -3.496094 C 2.652344 -3.359375 2.691406 -3.195312 2.839844 -3.101562 Z M 0.84375 0.519531 L 2.601562 -2.34375 L 2.277344 -2.542969 L 0.519531 0.320312 Z M 0.84375 0.519531 "/></g></g></g><g fill="#ffffff" fill-opacity="1"><g transform="translate(21.828392, 7.925475)"><g><path d="M 1.152344 1.195312 C 1.734375 1.734375 2.34375 1.820312 2.785156 1.347656 C 3.292969 0.800781 2.886719 0.246094 2.542969 -0.195312 C 2.136719 -0.726562 2.070312 -0.996094 2.328125 -1.269531 C 2.550781 -1.511719 2.925781 -1.539062 3.300781 -1.191406 C 3.679688 -0.835938 3.75 -0.433594 3.511719 -0.148438 L 3.785156 0.113281 C 4.15625 -0.285156 4.078125 -0.914062 3.523438 -1.429688 C 2.953125 -1.960938 2.382812 -1.886719 2.046875 -1.523438 C 1.59375 -1.039062 1.863281 -0.523438 2.242188 -0.0351562 C 2.605469 0.429688 2.800781 0.765625 2.492188 1.097656 C 2.214844 1.398438 1.804688 1.359375 1.375 0.960938 C 0.90625 0.527344 0.878906 0.0273438 1.160156 -0.285156 L 0.894531 -0.535156 C 0.507812 -0.125 0.496094 0.582031 1.152344 1.195312 Z M 1.152344 1.195312 "/></g></g></g><g fill="#ffffff" fill-opacity="1"><g transform="translate(23.90908, 9.780158)"><g><path d="M 0.800781 1.453125 C 1.21875 2.125 1.785156 2.371094 2.332031 2.03125 C 2.964844 1.636719 2.722656 0.996094 2.507812 0.476562 C 2.253906 -0.140625 2.257812 -0.417969 2.578125 -0.617188 C 2.855469 -0.789062 3.226562 -0.71875 3.496094 -0.28125 C 3.769531 0.15625 3.730469 0.566406 3.425781 0.78125 L 3.625 1.101562 C 4.085938 0.816406 4.175781 0.1875 3.777344 -0.457031 C 3.363281 -1.121094 2.792969 -1.195312 2.375 -0.933594 C 1.8125 -0.582031 1.9375 -0.0195312 2.175781 0.550781 C 2.402344 1.097656 2.5 1.472656 2.117188 1.710938 C 1.769531 1.929688 1.382812 1.785156 1.074219 1.289062 C 0.738281 0.746094 0.839844 0.257812 1.195312 0.0273438 L 1.003906 -0.285156 C 0.523438 0.015625 0.324219 0.691406 0.800781 1.453125 Z M 0.800781 1.453125 "/></g></g></g><g fill="#ffffff" fill-opacity="1"><g transform="translate(25.391689, 12.247277)"><g><path d="M 0.230469 0.792969 C 0.289062 0.953125 0.453125 1.027344 0.601562 0.972656 C 0.746094 0.917969 0.824219 0.753906 0.765625 0.59375 C 0.703125 0.429688 0.539062 0.367188 0.394531 0.417969 C 0.25 0.472656 0.171875 0.632812 0.230469 0.792969 Z M 0.230469 0.792969 "/></g></g></g><g fill="#ffffff" fill-opacity="1"><g transform="translate(25.900277, 13.56373)"><g/></g></g><g fill="#ffffff" fill-opacity="1"><g transform="translate(2.90155, 16.211604)"><g><path d="M 0.433594 2.113281 C 0.628906 2.929688 1.460938 3.429688 2.324219 3.222656 C 3.183594 3.019531 3.695312 2.191406 3.5 1.375 C 3.335938 0.695312 2.765625 0.304688 2.210938 0.234375 L 4.273438 -0.261719 L 4.246094 -0.375 L 0.148438 0.613281 L 0.171875 0.722656 L 1.054688 0.511719 C 0.515625 0.878906 0.292969 1.519531 0.433594 2.113281 Z M 0.546875 2.082031 C 0.363281 1.328125 0.839844 0.5625 1.636719 0.371094 C 2.429688 0.179688 3.203125 0.644531 3.386719 1.398438 C 3.566406 2.15625 3.089844 2.917969 2.296875 3.109375 C 1.492188 3.304688 0.730469 2.839844 0.546875 2.082031 Z M 0.546875 2.082031 "/></g></g></g><g fill="#ffffff" fill-opacity="1"><g transform="translate(4.111016, 20.624123)"><g><path d="M 3.039062 1.839844 L 3.078125 1.816406 C 3.742188 1.386719 3.976562 0.472656 3.546875 -0.195312 C 3.113281 -0.859375 2.167969 -1.046875 1.425781 -0.566406 C 0.683594 -0.0859375 0.46875 0.855469 0.898438 1.519531 C 1.203125 1.992188 1.773438 2.261719 2.363281 2.128906 L 2.292969 2.023438 C 1.757812 2.128906 1.261719 1.867188 0.996094 1.457031 C 0.632812 0.894531 0.757812 0.00390625 1.515625 -0.484375 L 1.527344 -0.492188 Z M 3.449219 -0.128906 C 3.832031 0.464844 3.636719 1.285156 3.066406 1.6875 L 1.617188 -0.546875 C 2.277344 -0.902344 3.074219 -0.707031 3.449219 -0.128906 Z M 3.449219 -0.128906 "/></g></g></g><g fill="#ffffff" fill-opacity="1"><g transform="translate(6.29029, 23.718581)"><g/></g></g><g fill="#ffffff" fill-opacity="1"><g transform="translate(7.647514, 25.170396)"><g><path d="M 1.546875 0.964844 C 2.101562 1.28125 2.773438 1.210938 3.257812 0.8125 L 2.8125 1.597656 L 2.910156 1.65625 L 4.996094 -2.007812 L 4.898438 -2.066406 L 3.847656 -0.222656 C 3.929688 -0.765625 3.71875 -1.429688 3.109375 -1.777344 C 2.378906 -2.191406 1.441406 -1.929688 1.003906 -1.160156 C 0.566406 -0.386719 0.820312 0.546875 1.546875 0.964844 Z M 1.609375 0.863281 C 0.929688 0.476562 0.695312 -0.386719 1.105469 -1.101562 C 1.507812 -1.8125 2.375 -2.058594 3.050781 -1.671875 C 3.726562 -1.289062 3.960938 -0.417969 3.554688 0.292969 C 3.148438 1.007812 2.285156 1.246094 1.609375 0.863281 Z M 1.609375 0.863281 "/></g></g></g><g fill="#ffffff" fill-opacity="1"><g transform="translate(11.530595, 27.14403)"><g><path d="M 1.695312 -3.511719 C 1.777344 -3.488281 1.867188 -3.535156 1.890625 -3.621094 C 1.914062 -3.703125 1.863281 -3.792969 1.78125 -3.816406 C 1.703125 -3.835938 1.613281 -3.785156 1.59375 -3.707031 C 1.566406 -3.621094 1.617188 -3.535156 1.695312 -3.511719 Z M 0.714844 0.199219 L 1.53125 -2.695312 L 1.421875 -2.726562 L 0.605469 0.171875 Z M 0.714844 0.199219 "/></g></g></g><g fill="#ffffff" fill-opacity="1"><g transform="translate(13.087531, 27.586746)"><g><path d="M 0.929688 0.113281 L 1.277344 -2.761719 L 2.265625 -2.640625 L 2.277344 -2.753906 L 1.289062 -2.875 L 1.324219 -3.152344 C 1.382812 -3.636719 1.691406 -3.929688 2.089844 -3.878906 L 2.449219 -3.835938 L 2.460938 -3.949219 L 2.105469 -3.992188 C 1.636719 -4.050781 1.277344 -3.726562 1.210938 -3.175781 L 1.175781 -2.890625 L 0.449219 -2.976562 L 0.433594 -2.863281 L 1.164062 -2.777344 L 0.816406 0.0976562 Z M 0.929688 0.113281 "/></g></g></g><g fill="#ffffff" fill-opacity="1"><g transform="translate(15.363851, 27.835847)"><g><path d="M 0.933594 -0.0585938 L 0.757812 -2.949219 L 1.75 -3.007812 L 1.742188 -3.121094 L 0.75 -3.0625 L 0.730469 -3.339844 C 0.703125 -3.828125 0.949219 -4.167969 1.351562 -4.195312 L 1.714844 -4.214844 L 1.707031 -4.328125 L 1.347656 -4.308594 C 0.875 -4.277344 0.582031 -3.894531 0.617188 -3.34375 L 0.636719 -3.054688 L -0.0976562 -3.007812 L -0.0898438 -2.894531 L 0.640625 -2.941406 L 0.820312 -0.0507812 Z M 0.933594 -0.0585938 "/></g></g></g><g fill="#ffffff" fill-opacity="1"><g transform="translate(17.770593, 27.726036)"><g><path d="M 2.578125 -2.445312 L 2.5625 -2.488281 C 2.324219 -3.246094 1.5 -3.710938 0.746094 -3.472656 C -0.0078125 -3.230469 -0.4375 -2.367188 -0.171875 -1.523438 C 0.0976562 -0.683594 0.945312 -0.226562 1.703125 -0.46875 C 2.238281 -0.636719 2.648438 -1.117188 2.675781 -1.71875 L 2.558594 -1.679688 C 2.515625 -1.136719 2.132812 -0.726562 1.667969 -0.578125 C 1.03125 -0.375 0.207031 -0.730469 -0.0703125 -1.589844 L -0.0742188 -1.601562 Z M 0.78125 -3.359375 C 1.460938 -3.574219 2.195312 -3.167969 2.4375 -2.511719 L -0.101562 -1.703125 C -0.269531 -2.433594 0.128906 -3.152344 0.78125 -3.359375 Z M 0.78125 -3.359375 "/></g></g></g><g fill="#ffffff" fill-opacity="1"><g transform="translate(21.386498, 26.438202)"><g><path d="M 0.628906 -0.398438 L -0.152344 -1.625 C -0.628906 -2.378906 -0.484375 -3.117188 0.0273438 -3.441406 L 0.222656 -3.566406 L 0.160156 -3.667969 L -0.0390625 -3.542969 C -0.476562 -3.261719 -0.667969 -2.738281 -0.488281 -2.15625 L -0.984375 -2.9375 L -1.082031 -2.878906 L 0.53125 -0.335938 Z M 0.628906 -0.398438 "/></g></g></g><g fill="#ffffff" fill-opacity="1"><g transform="translate(23.646061, 25.028764)"><g><path d="M 1.035156 -3.398438 L 1.003906 -3.429688 C 0.421875 -3.96875 -0.523438 -3.96875 -1.0625 -3.390625 C -1.601562 -2.804688 -1.550781 -1.84375 -0.898438 -1.242188 C -0.25 -0.640625 0.710938 -0.664062 1.253906 -1.246094 C 1.632812 -1.65625 1.753906 -2.277344 1.484375 -2.8125 L 1.398438 -2.722656 C 1.628906 -2.226562 1.5 -1.683594 1.167969 -1.324219 C 0.710938 -0.835938 -0.179688 -0.734375 -0.84375 -1.351562 L -0.855469 -1.359375 Z M -0.976562 -3.308594 C -0.492188 -3.832031 0.347656 -3.839844 0.882812 -3.386719 L -0.929688 -1.433594 C -1.433594 -1.984375 -1.441406 -2.804688 -0.976562 -3.308594 Z M -0.976562 -3.308594 "/></g></g></g><g fill="#ffffff" fill-opacity="1"><g transform="translate(26.306345, 22.071241)"><g><path d="M 0.300781 -0.679688 L -1.230469 -1.359375 C -1.914062 -1.660156 -2.164062 -2.4375 -1.894531 -3.042969 C -1.601562 -3.699219 -1.054688 -3.90625 -0.234375 -3.542969 L 1.273438 -2.875 L 1.320312 -2.980469 L -0.1875 -3.648438 C -1.101562 -4.050781 -1.683594 -3.808594 -2 -3.09375 C -2.242188 -2.542969 -2.109375 -1.929688 -1.714844 -1.570312 L -2.449219 -1.898438 L -2.496094 -1.792969 L 0.253906 -0.574219 Z M 0.300781 -0.679688 "/></g></g></g><g fill="#ffffff" fill-opacity="1"><g transform="translate(27.878182, 18.104816)"><g><path d="M 0.289062 -2.066406 L 0.175781 -2.082031 L 0.113281 -1.648438 C 0.0664062 -1.304688 -0.0859375 -0.925781 -0.914062 -1.042969 L -2.734375 -1.300781 L -2.570312 -2.46875 L -2.6875 -2.484375 L -2.855469 -1.316406 L -3.769531 -1.445312 L -3.785156 -1.332031 L -2.871094 -1.203125 L -2.976562 -0.449219 L -2.855469 -0.433594 L -2.75 -1.1875 L -0.929688 -0.929688 C -0.117188 -0.816406 0.164062 -1.160156 0.230469 -1.628906 Z M 0.289062 -2.066406 "/></g></g></g><g fill="#ffffff" fill-opacity="1"><g transform="translate(28.17803, 15.58102)"><g/></g></g><g fill="#ffffff" fill-opacity="1"><g transform="translate(28.101206, 13.798678)"><g/></g></g><g fill="#ffffff" fill-opacity="1"><g transform="translate(27.773267, 12.045084)"><g/></g></g><g fill="#ffffff" fill-opacity="1"><g transform="translate(27.200794, 10.355431)"><g/></g></g><g clip-path="url(#37dbadf9ee)"><path fill="#ffffff" d="M 19.683594 16.804688 C 19.46875 16.632812 19.238281 16.464844 18.984375 16.308594 C 18.65625 16.109375 18.371094 16.003906 18.109375 16.027344 C 18.117188 15.996094 18.125 15.960938 18.132812 15.929688 C 19.035156 15.785156 20.394531 16.148438 21.21875 16.476562 C 21.535156 16.597656 21.796875 16.722656 21.851562 16.765625 C 21.914062 16.8125 21.175781 16.148438 19.453125 15.847656 C 19 15.769531 18.535156 15.746094 18.148438 15.800781 C 18.148438 15.710938 18.136719 15.617188 18.105469 15.53125 C 18.273438 15.421875 18.464844 15.351562 18.671875 15.3125 C 19.644531 15.121094 20.984375 15.585938 21.839844 15.996094 C 22.167969 16.152344 22.484375 16.332031 22.78125 16.535156 C 23.101562 16.753906 23.453125 17.039062 23.671875 17.355469 C 23.742188 17.457031 23.816406 17.578125 23.855469 17.699219 C 23.964844 18.035156 23.441406 17.804688 23.296875 17.742188 C 22.257812 17.292969 20.066406 16.867188 20.082031 16.871094 Z M 18.882812 18.753906 C 19.074219 19.71875 19.199219 20.644531 19 21.683594 C 18.996094 21.707031 18.992188 21.730469 18.988281 21.75 C 18.976562 21.796875 18.964844 21.84375 18.949219 21.894531 C 18.800781 22.394531 18.695312 22.546875 18.457031 21.953125 C 18.347656 21.671875 18.253906 21.410156 18.085938 21.136719 C 17.839844 20.730469 17.578125 20.335938 17.332031 19.929688 C 17.078125 19.507812 16.84375 19.078125 16.65625 18.625 C 16.566406 18.410156 16.472656 18.15625 16.449219 17.90625 C 16.402344 17.640625 16.457031 17.371094 16.515625 17.191406 C 16.589844 17.125 16.640625 17.070312 16.675781 17.011719 C 16.734375 16.914062 16.765625 16.824219 16.796875 16.722656 C 16.808594 16.683594 16.820312 16.621094 16.839844 16.589844 C 16.855469 16.5625 16.886719 16.550781 16.960938 16.578125 C 16.960938 16.605469 16.960938 16.632812 16.964844 16.664062 C 16.996094 17.121094 17.144531 17.652344 17.347656 18.164062 C 17.574219 18.730469 17.867188 19.277344 18.160156 19.675781 C 18.164062 19.679688 17.691406 18.699219 17.46875 18.144531 C 17.269531 17.644531 17.148438 17.097656 17.117188 16.65625 C 17.117188 16.644531 17.117188 16.632812 17.113281 16.625 C 17.355469 16.667969 17.632812 16.601562 17.828125 16.453125 C 18.09375 16.628906 18.996094 17.230469 19.441406 17.660156 C 19.445312 17.667969 19.179688 17.304688 18.605469 16.855469 C 18.433594 16.71875 18.132812 16.515625 17.910156 16.378906 C 17.921875 16.363281 17.933594 16.351562 17.945312 16.339844 C 18.003906 16.261719 18.050781 16.179688 18.085938 16.097656 C 18.515625 16.152344 18.925781 16.429688 19.167969 16.632812 C 19.652344 16.96875 20.070312 17.363281 20.527344 17.742188 C 20.664062 17.859375 20.808594 17.972656 20.957031 18.078125 C 21.109375 18.191406 21.183594 18.277344 21.179688 18.339844 C 21.175781 18.394531 21.128906 18.4375 20.828125 18.4375 C 20.019531 18.425781 19.015625 18.046875 18.402344 17.625 C 17.980469 17.394531 17.496094 16.839844 17.492188 16.835938 C 17.585938 17.128906 17.878906 17.417969 18.140625 17.636719 C 18.292969 17.765625 18.488281 17.890625 18.707031 17.996094 C 18.769531 18.253906 18.832031 18.5 18.882812 18.753906 Z M 15.167969 18.890625 C 15.335938 18.546875 15.65625 17.710938 15.640625 17.34375 C 15.726562 17.375 15.820312 17.386719 15.910156 17.390625 C 15.78125 18.050781 15.753906 18.8125 15.761719 19.480469 C 15.769531 19.714844 15.78125 19.90625 15.800781 20.03125 C 15.808594 20.0625 15.8125 20.082031 15.8125 20.082031 C 15.804688 19.871094 15.835938 19.367188 15.878906 18.847656 C 15.933594 18.226562 16 17.589844 16.039062 17.410156 L 16.042969 17.386719 C 16.15625 17.371094 16.269531 17.339844 16.367188 17.289062 C 16.1875 17.660156 16.257812 18.125 16.492188 18.691406 C 16.503906 18.714844 16.515625 18.738281 16.523438 18.761719 C 16.441406 19.15625 16.355469 19.53125 16.296875 19.9375 C 16.207031 20.523438 16.1875 21.054688 16.152344 21.605469 C 16.144531 21.757812 16.148438 21.929688 16.128906 22.085938 C 16.117188 22.195312 16.074219 22.238281 15.972656 22.148438 C 15.886719 22.070312 15.808594 21.972656 15.746094 21.875 C 15.257812 21.164062 15.015625 19.609375 15.160156 19.003906 Z M 12.730469 14.210938 C 12.953125 14.316406 13.1875 14.410156 13.414062 14.457031 C 13.355469 14.554688 13.320312 14.664062 13.308594 14.773438 C 12.703125 14.707031 11.707031 14.832031 11.15625 15.03125 C 11.140625 15.039062 11.125 15.042969 11.128906 15.042969 C 11.457031 14.984375 11.851562 14.925781 12.242188 14.890625 C 12.617188 14.855469 12.988281 14.847656 13.308594 14.890625 C 13.324219 15.175781 13.507812 15.453125 13.847656 15.566406 C 13.980469 15.609375 13.964844 15.628906 13.902344 15.746094 C 13.816406 15.90625 13.796875 16.082031 13.835938 16.242188 C 13.625 16.339844 13.378906 16.4375 13.113281 16.527344 C 12.84375 16.621094 12.558594 16.707031 12.269531 16.78125 C 11.980469 16.859375 11.691406 16.929688 11.417969 16.992188 C 11.0625 17.074219 10.738281 17.144531 10.472656 17.195312 C 10.40625 17.210938 10.519531 17.203125 10.691406 17.1875 C 11.449219 17.117188 12.4375 16.921875 13.164062 16.667969 C 13.425781 16.578125 13.671875 16.480469 13.882812 16.382812 C 13.933594 16.488281 14.007812 16.582031 14.105469 16.65625 C 14.339844 16.828125 14.710938 16.875 14.964844 16.730469 C 15.082031 16.664062 15.074219 16.683594 15.101562 16.773438 C 15.121094 16.839844 15.148438 16.902344 15.175781 16.957031 L 15.175781 16.960938 C 15.15625 17.199219 15.09375 17.453125 15.015625 17.703125 C 14.9375 17.957031 14.84375 18.207031 14.753906 18.4375 C 14.742188 18.472656 14.800781 18.382812 14.871094 18.257812 C 15.03125 17.972656 15.207031 17.46875 15.277344 17.101562 C 15.371094 17.210938 15.484375 17.289062 15.609375 17.335938 C 15.601562 17.410156 15.585938 17.492188 15.5625 17.578125 C 15.425781 18.082031 15.042969 18.886719 14.753906 19.367188 C 14.691406 19.472656 14.589844 19.636719 14.503906 19.726562 C 14.28125 19.949219 14.253906 19.820312 14.273438 19.5625 C 14.289062 19.382812 14.324219 19.195312 14.359375 19.015625 C 14.429688 18.667969 14.6875 17.457031 14.796875 17.242188 C 14.507812 17.675781 14.289062 18.460938 14.179688 19.039062 C 13.699219 19.46875 13.039062 19.875 12.449219 20.074219 C 12.378906 20.097656 12.082031 20.164062 12.042969 20.117188 C 12.019531 20.089844 12.0625 20.027344 12.128906 19.929688 C 12.257812 19.738281 12.375 19.539062 12.484375 19.335938 C 12.878906 18.617188 13.515625 17.007812 14.4375 16.894531 C 14.476562 16.886719 14.511719 16.886719 14.546875 16.882812 C 14.324219 16.808594 13.960938 16.921875 13.585938 17.074219 C 12.445312 17.539062 11.953125 17.75 10.65625 17.910156 C 9.792969 18.019531 8.890625 18.039062 8.320312 17.875 C 7.949219 17.769531 8.164062 17.613281 8.398438 17.464844 C 8.804688 17.203125 9.253906 16.960938 9.667969 16.71875 C 9.988281 16.527344 10.339844 16.335938 10.65625 16.136719 C 10.707031 16.167969 10.726562 16.175781 10.8125 16.203125 C 11.316406 16.378906 12.011719 16.394531 12.554688 16.320312 C 12.699219 16.300781 13.007812 16.226562 13.277344 16.128906 C 13.511719 16.046875 13.664062 15.949219 13.746094 15.851562 C 13.3125 16.230469 11.503906 16.28125 10.871094 16.042969 C 10.570312 15.941406 10.679688 15.886719 10.929688 15.804688 C 11.667969 15.550781 12.582031 15.359375 13.359375 15.34375 C 13.292969 15.328125 13.21875 15.316406 13.136719 15.308594 C 12.449219 15.238281 11.605469 15.40625 10.972656 15.609375 C 10.308594 15.566406 9.71875 15.574219 9.054688 15.488281 C 9.015625 15.484375 8.917969 15.464844 8.882812 15.460938 C 8.46875 15.40625 8.332031 15.296875 8.734375 15.054688 C 9.574219 14.550781 11.671875 14.238281 12.730469 14.210938 Z M 13.699219 12.199219 C 13.847656 12.5 14.039062 12.769531 14.273438 12.957031 C 13.914062 12.59375 13.628906 11.664062 13.523438 10.96875 C 13.472656 10.621094 13.460938 10.210938 13.527344 9.867188 C 13.582031 9.597656 13.660156 9.605469 13.800781 9.832031 C 13.957031 10.089844 14.109375 10.414062 14.257812 10.679688 C 14.496094 11.097656 14.789062 11.480469 15.003906 11.914062 C 15.191406 12.285156 15.308594 12.664062 15.160156 12.890625 C 15.039062 12.847656 14.910156 12.828125 14.78125 12.835938 C 14.730469 12.460938 14.113281 11.496094 14.164062 11.609375 C 14.164062 11.613281 14.578125 12.554688 14.664062 12.851562 C 14.519531 12.875 14.378906 12.9375 14.261719 13.027344 C 14.105469 13.15625 14 13.328125 13.972656 13.519531 C 13.300781 13.269531 11.847656 12.15625 11.84375 12.152344 C 11.773438 12.101562 12.175781 12.523438 12.808594 12.988281 C 13.164062 13.246094 13.621094 13.546875 13.925781 13.636719 C 13.9375 13.640625 13.953125 13.644531 13.972656 13.648438 C 13.976562 13.746094 13.992188 13.847656 14.046875 13.945312 C 14.109375 14.058594 14.179688 14.078125 14.011719 14.09375 C 13.929688 14.101562 13.847656 14.125 13.769531 14.15625 C 13.664062 14.203125 13.574219 14.265625 13.503906 14.339844 C 12.804688 14.210938 11.875 13.625 11.140625 12.820312 C 10.472656 12.089844 9.960938 11.160156 9.917969 10.527344 C 9.90625 10.285156 9.972656 10.234375 10.152344 10.355469 C 10.226562 10.402344 10.296875 10.453125 10.328125 10.472656 C 10.59375 10.652344 10.871094 10.816406 11.152344 10.976562 C 11.886719 11.382812 12.648438 11.710938 13.410156 12.058594 Z M 20.371094 13.894531 C 19.96875 13.921875 19.574219 13.992188 19.28125 14.113281 C 18.902344 14.265625 18.449219 14.496094 18.332031 14.824219 L 18.339844 14.816406 C 19.296875 13.921875 20.890625 13.859375 22.078125 14.25 C 22.089844 14.253906 22.105469 14.261719 22.121094 14.265625 C 22.160156 14.28125 22.195312 14.292969 22.234375 14.3125 C 22.5625 14.460938 22.386719 14.539062 22.109375 14.628906 C 21.703125 14.761719 21.34375 14.847656 21.03125 14.992188 C 20.824219 15.09375 20.699219 15.207031 20.453125 15.304688 C 20.359375 15.277344 20.464844 15.304688 20.375 15.28125 C 19.699219 15.117188 19.054688 15.078125 18.578125 15.226562 C 18.386719 15.289062 18.21875 15.371094 18.097656 15.511719 C 18.0625 15.417969 18.007812 15.332031 17.929688 15.25 C 17.8125 15.128906 17.847656 15.152344 17.976562 15.078125 C 18.078125 15.023438 18.167969 14.933594 18.234375 14.832031 C 18.429688 14.53125 18.355469 14.160156 18.113281 13.921875 C 18.394531 13.757812 19.597656 13.082031 20.84375 13 C 20.859375 13 20.648438 12.957031 20.285156 12.996094 C 19.613281 13.074219 18.628906 13.421875 18.085938 13.847656 C 18.074219 13.855469 18.066406 13.863281 18.054688 13.871094 C 17.929688 13.769531 17.773438 13.707031 17.589844 13.695312 C 17.28125 13.675781 17.296875 13.695312 17.304688 13.417969 C 17.304688 13.3125 17.292969 13.214844 17.265625 13.125 C 17.25 13.074219 17.234375 13.023438 17.210938 12.980469 C 17.738281 12.367188 18.296875 11.664062 18.539062 10.898438 C 18.578125 10.773438 18.59375 10.699219 18.59375 10.703125 C 18.246094 11.558594 17.382812 12.59375 17.140625 12.875 C 16.980469 12.65625 16.710938 12.546875 16.445312 12.546875 C 16.351562 12.546875 16.261719 12.558594 16.171875 12.582031 C 16.144531 11.847656 16.113281 10.980469 15.914062 10.210938 C 15.910156 10.183594 15.910156 10.273438 15.914062 10.386719 C 15.9375 11.136719 15.996094 11.878906 16.027344 12.640625 C 15.855469 12.71875 15.707031 12.847656 15.617188 13.015625 C 15.570312 13.101562 15.5625 13.140625 15.46875 13.074219 C 15.386719 13.011719 15.253906 12.925781 15.160156 12.890625 C 15.175781 12.867188 15.195312 12.84375 15.210938 12.816406 C 15.359375 12.558594 15.3125 12.242188 15.132812 11.847656 C 15.046875 11.65625 14.949219 11.476562 14.84375 11.304688 L 14.859375 10.9375 C 14.917969 10.226562 15.046875 9.0625 15.292969 8.214844 C 15.667969 6.945312 15.875 7.15625 16.285156 8.207031 C 16.652344 9.164062 16.929688 10.164062 17.105469 11.171875 L 17.152344 11.53125 L 17.15625 11.53125 C 16.980469 11.921875 16.863281 12.296875 16.871094 12.605469 C 16.972656 11.886719 17.890625 10.472656 18.453125 9.789062 C 18.835938 9.328125 19.429688 8.726562 19.941406 8.445312 C 20.167969 8.320312 20.5 8.257812 20.242188 8.628906 C 19.902344 9.117188 19.589844 9.855469 19.433594 10.421875 C 19.328125 10.804688 19.226562 11.191406 19.070312 11.558594 C 18.980469 11.769531 18.871094 11.96875 18.742188 12.160156 C 18.167969 13.113281 17.609375 13.273438 17.582031 13.28125 C 17.90625 13.230469 18.304688 12.980469 18.71875 12.476562 L 19.03125 12.398438 C 20.113281 12.171875 21.417969 11.941406 22.507812 12.210938 C 22.65625 12.25 23.171875 12.421875 22.808594 12.589844 C 22.648438 12.664062 22.457031 12.726562 22.3125 12.796875 C 21.753906 13.042969 21.042969 13.429688 20.539062 13.78125 C 20.507812 13.804688 20.402344 13.890625 20.371094 13.894531 " fill-opacity="1" fill-rule="evenodd"/></g><path fill="#ffffff" d="M 16.789062 15.386719 C 17.03125 15.121094 17.429688 15.082031 17.683594 15.300781 C 17.9375 15.519531 17.945312 15.910156 17.707031 16.175781 C 17.46875 16.441406 17.070312 16.476562 16.816406 16.261719 C 16.5625 16.042969 16.550781 15.652344 16.789062 15.386719 Z M 15.960938 15.929688 C 16.320312 15.945312 16.601562 16.226562 16.585938 16.554688 C 16.570312 16.886719 16.265625 17.140625 15.90625 17.125 C 15.542969 17.109375 15.261719 16.828125 15.277344 16.5 C 15.292969 16.167969 15.597656 15.914062 15.960938 15.929688 Z M 14.921875 15.652344 C 15.164062 15.835938 15.21875 16.167969 15.042969 16.386719 C 14.867188 16.609375 14.527344 16.640625 14.285156 16.457031 C 14.039062 16.273438 13.984375 15.941406 14.160156 15.722656 C 14.339844 15.5 14.679688 15.46875 14.921875 15.652344 Z M 14.191406 14.300781 C 14.523438 14.308594 14.785156 14.5625 14.773438 14.867188 C 14.765625 15.167969 14.488281 15.402344 14.15625 15.394531 C 13.824219 15.382812 13.5625 15.128906 13.574219 14.828125 C 13.585938 14.527344 13.863281 14.289062 14.191406 14.300781 Z M 14.867188 13.0625 C 15.230469 13.0625 15.523438 13.328125 15.523438 13.660156 C 15.523438 13.988281 15.230469 14.253906 14.867188 14.253906 C 14.507812 14.253906 14.210938 13.988281 14.210938 13.660156 C 14.210938 13.328125 14.507812 13.0625 14.867188 13.0625 Z M 15.808594 14.140625 C 16.320312 14.140625 16.730469 14.503906 16.730469 14.949219 C 16.730469 15.398438 16.320312 15.761719 15.808594 15.761719 C 15.296875 15.761719 14.882812 15.398438 14.882812 14.949219 C 14.882812 14.503906 15.296875 14.140625 15.808594 14.140625 Z M 17.773438 13.980469 C 18.058594 14.15625 18.152344 14.507812 17.984375 14.769531 C 17.820312 15.027344 17.449219 15.097656 17.164062 14.921875 C 16.878906 14.746094 16.785156 14.390625 16.953125 14.132812 C 17.121094 13.871094 17.488281 13.804688 17.773438 13.980469 Z M 16.410156 12.808594 C 16.773438 12.808594 17.066406 13.078125 17.066406 13.40625 C 17.066406 13.738281 16.773438 14.003906 16.410156 14.003906 C 16.050781 14.003906 15.757812 13.738281 15.757812 13.40625 C 15.757812 13.078125 16.050781 12.808594 16.410156 12.808594 " fill-opacity="1" fill-rule="evenodd"/></svg>